<svg width="25" height="25" viewBox="0 0 25 25" fill="none" xmlns="http://www.w3.org/2000/svg">
<g clip-path="url(#clip0_417_714)">
<path d="M19.6875 12.08C19.6875 8.11044 16.4695 4.89249 12.5 4.89249C8.53045 4.89249 5.3125 8.11044 5.3125 12.08C5.3125 15.6675 7.94087 18.641 11.377 19.1802V14.1576H9.552V12.08H11.377V10.4965C11.377 8.69513 12.45 7.70011 14.0918 7.70011C14.8781 7.70011 15.7007 7.84049 15.7007 7.84049V9.60929H14.7944C13.9015 9.60929 13.623 10.1633 13.623 10.7317V12.08H15.6165L15.2978 14.1576H13.623V19.1802C17.0591 18.641 19.6875 15.6675 19.6875 12.08Z" fill="#1877F2"/>
</g>
<rect x="1" y="0.536133" width="23" height="23" rx="7.5" stroke="#D0D5DD"/>
<defs>
<clipPath id="clip0_417_714">
<rect width="15" height="15" fill="white" transform="translate(5 4.53613)"/>
</clipPath>
</defs>
</svg>
