<svg width="363" height="171" viewBox="0 0 363 171" fill="none" xmlns="http://www.w3.org/2000/svg">
<path d="M0.00218967 0C0.00218967 0 -0.959109 86.8459 37.402 91.6661C317.533 126.866 13.0441 72.5996 13.0441 72.5996L163.535 78.4662L213.401 101.933L275.001 91.6661L316.067 126.866L354.933 170.132H0.00218967V0Z" fill="#695E93"/>
<path d="M11.7352 13.9336L12.6096 21.2713L16.2253 14.8267L14.2251 21.9405L20.0319 17.3702L15.4616 23.177L22.5753 21.1767L16.1308 24.7925L23.4685 25.6669L16.1308 26.5412L22.5753 30.157L15.4616 28.1568L20.0319 33.9635L14.2251 29.3933L16.2253 36.507L12.6096 30.0625L11.7352 37.4001L10.8609 30.0625L7.24509 36.507L9.24531 29.3933L3.43855 33.9635L8.00881 28.1568L0.895095 30.157L7.33962 26.5412L0.00195312 25.6669L7.33962 24.7925L0.895095 21.1767L8.00881 23.177L3.43855 17.3702L9.24531 21.9405L7.24509 14.8267L10.8609 21.2713L11.7352 13.9336Z" fill="#695E93"/>
<path d="M27.8685 61.6001L28.7429 68.9378L32.3586 62.4932L30.3584 69.607L36.1652 65.0367L31.5949 70.8435L38.7086 68.8432L32.2641 72.459L39.6018 73.3334L32.2641 74.2077L38.7086 77.8235L31.5949 75.8233L36.1652 81.63L30.3584 77.0598L32.3586 84.1735L28.7429 77.729L27.8685 85.0666L26.9942 77.729L23.3784 84.1735L25.3786 77.0598L19.5718 81.63L24.1421 75.8233L17.0284 77.8235L23.4729 74.2077L16.1353 73.3334L23.4729 72.459L17.0284 68.8432L24.1421 70.8435L19.5718 65.0367L25.3786 69.607L23.3784 62.4932L26.9942 68.9378L27.8685 61.6001Z" fill="#695E93"/>
<path d="M61.6019 53.5332L62.4763 60.8709L66.092 54.4263L64.0918 61.5401L69.8986 56.9698L65.3283 62.7766L72.442 60.7763L65.9975 64.3921L73.3352 65.2665L65.9975 66.1408L72.442 69.7566L65.3283 67.7564L69.8986 73.5631L64.0918 68.9929L66.092 76.1066L62.4763 69.6621L61.6019 76.9997L60.7276 69.6621L57.1118 76.1066L59.112 68.9929L53.3052 73.5631L57.8755 67.7564L50.7618 69.7566L57.2063 66.1408L49.8687 65.2665L57.2063 64.3921L50.7618 60.7763L57.8755 62.7766L53.3052 56.9698L59.112 61.5401L57.1118 54.4263L60.7276 60.8709L61.6019 53.5332Z" fill="#695E93"/>
<path d="M107.068 30.0669L107.943 37.4046L111.558 30.96L109.558 38.0738L115.365 33.5035L110.795 39.3103L117.908 37.31L111.464 40.9258L118.801 41.8002L111.464 42.6745L117.908 46.2903L110.795 44.2901L115.365 50.0968L109.558 45.5266L111.558 52.6403L107.943 46.1958L107.068 53.5334L106.194 46.1958L102.578 52.6403L104.578 45.5266L98.7716 50.0968L103.342 44.2901L96.2281 46.2903L102.673 42.6745L95.335 41.8002L102.673 40.9258L96.2281 37.31L103.342 39.3103L98.7716 33.5035L104.578 38.0738L102.578 30.96L106.194 37.4046L107.068 30.0669Z" fill="#695E93"/>
<path d="M165.735 41.7998L166.609 49.1375L170.225 42.6929L168.225 49.8067L174.031 45.2364L169.461 51.0432L176.575 49.0429L170.13 52.6587L177.468 53.5331L170.13 54.4074L176.575 58.0232L169.461 56.023L174.031 61.8297L168.225 57.2595L170.225 64.3732L166.609 57.9287L165.735 65.2663L164.86 57.9287L161.245 64.3732L163.245 57.2595L157.438 61.8297L162.008 56.023L154.895 58.0232L161.339 54.4074L154.001 53.5331L161.339 52.6587L154.895 49.0429L162.008 51.0432L157.438 45.2364L163.245 49.8067L161.245 42.6929L164.86 49.1375L165.735 41.7998Z" fill="#695E93"/>
<path d="M272.801 73.333L273.675 80.6707L277.291 74.2261L275.291 81.3399L281.097 76.7696L276.527 82.5764L283.641 80.5761L277.196 84.1919L284.534 85.0663L277.196 85.9406L283.641 89.5564L276.527 87.5562L281.097 93.3629L275.291 88.7927L277.291 95.9064L273.675 89.4619L272.801 96.7995L271.926 89.4619L268.311 95.9064L270.311 88.7927L264.504 93.3629L269.074 87.5562L261.961 89.5564L268.405 85.9406L261.067 85.0663L268.405 84.1919L261.961 80.5761L269.074 82.5764L264.504 76.7696L270.311 81.3399L268.311 74.2261L271.926 80.6707L272.801 73.333Z" fill="#695E93"/>
<path d="M211.934 74.7998L212.809 82.1375L216.425 75.6929L214.424 82.8067L220.231 78.2364L215.661 84.0432L222.775 82.0429L216.33 85.6587L223.668 86.5331L216.33 87.4074L222.775 91.0232L215.661 89.023L220.231 94.8297L214.424 90.2595L216.425 97.3732L212.809 90.9287L211.934 98.2663L211.06 90.9287L207.444 97.3732L209.445 90.2595L203.638 94.8297L208.208 89.023L201.094 91.0232L207.539 87.4074L200.201 86.5331L207.539 85.6587L201.094 82.0429L208.208 84.0432L203.638 78.2364L209.445 82.8067L207.444 75.6929L211.06 82.1375L211.934 74.7998Z" fill="#695E93"/>
<path d="M322.667 107.8L323.541 115.137L327.157 108.693L325.157 115.807L330.964 111.236L326.393 117.043L333.507 115.043L327.062 118.659L334.4 119.533L327.062 120.407L333.507 124.023L326.393 122.023L330.964 127.83L325.157 123.259L327.157 130.373L323.541 123.929L322.667 131.266L321.793 123.929L318.177 130.373L320.177 123.259L314.37 127.83L318.94 122.023L311.827 124.023L318.271 120.407L310.934 119.533L318.271 118.659L311.827 115.043L318.94 117.043L314.37 111.236L320.177 115.807L318.177 108.693L321.793 115.137L322.667 107.8Z" fill="#695E93"/>
<path d="M351.267 140.066L352.141 147.404L355.757 140.959L353.757 148.073L359.564 143.503L354.993 149.309L362.107 147.309L355.663 150.925L363 151.799L355.663 152.674L362.107 156.289L354.993 154.289L359.564 160.096L353.757 155.526L355.757 162.639L352.141 156.195L351.267 163.532L350.393 156.195L346.777 162.639L348.777 155.526L342.97 160.096L347.541 154.289L340.427 156.289L346.871 152.674L339.534 151.799L346.871 150.925L340.427 147.309L347.541 149.309L342.97 143.503L348.777 148.073L346.777 140.959L350.393 147.404L351.267 140.066Z" fill="#695E93"/>
</svg>
