<svg id="svg" version="1.1" xmlns="http://www.w3.org/2000/svg" xmlns:xlink="http://www.w3.org/1999/xlink" width="400" height="400" viewBox="0, 0, 400,400"><g id="svgg"><path id="path0" d="M195.000 106.667 C 195.000 106.850,195.216 107.000,195.480 107.000 C 195.745 107.000,196.053 106.850,196.167 106.667 C 196.280 106.483,196.064 106.333,195.686 106.333 C 195.309 106.333,195.000 106.483,195.000 106.667 M196.667 106.605 C 196.667 106.754,197.604 106.818,198.750 106.747 C 201.738 106.562,201.887 106.390,199.083 106.360 C 197.754 106.345,196.667 106.455,196.667 106.605 M203.333 106.667 C 203.333 106.850,203.549 107.000,203.814 107.000 C 204.078 107.000,204.387 106.850,204.500 106.667 C 204.613 106.483,204.397 106.333,204.020 106.333 C 203.642 106.333,203.333 106.483,203.333 106.667 M190.333 107.000 C 189.929 107.261,189.977 107.324,190.583 107.328 C 190.996 107.331,191.333 107.183,191.333 107.000 C 191.333 106.582,190.980 106.582,190.333 107.000 M208.167 107.000 C 208.280 107.183,208.589 107.333,208.853 107.333 C 209.117 107.333,209.333 107.183,209.333 107.000 C 209.333 106.817,209.024 106.667,208.647 106.667 C 208.270 106.667,208.053 106.817,208.167 107.000 M187.500 107.340 C 187.010 107.556,187.173 107.599,188.118 107.504 C 188.825 107.433,189.487 107.291,189.590 107.187 C 189.884 106.894,188.242 107.014,187.500 107.340 M211.500 107.333 C 211.613 107.517,211.931 107.667,212.206 107.667 C 212.481 107.667,212.613 107.517,212.500 107.333 C 212.387 107.150,212.069 107.000,211.794 107.000 C 211.519 107.000,211.387 107.150,211.500 107.333 M185.500 107.667 C 185.387 107.850,185.519 108.000,185.794 108.000 C 186.069 108.000,186.387 107.850,186.500 107.667 C 186.613 107.483,186.481 107.333,186.206 107.333 C 185.931 107.333,185.613 107.483,185.500 107.667 M183.667 108.000 C 183.667 108.183,183.883 108.333,184.147 108.333 C 184.411 108.333,184.720 108.183,184.833 108.000 C 184.947 107.817,184.730 107.667,184.353 107.667 C 183.976 107.667,183.667 107.817,183.667 108.000 M193.667 107.880 C 180.325 108.874,168.114 116.458,156.412 131.018 C 153.040 135.214,152.571 136.571,154.000 138.000 C 155.994 139.994,159.904 137.559,165.742 130.687 C 172.826 122.348,178.282 119.966,190.167 120.023 C 194.682 120.045,194.507 120.376,189.656 120.991 C 186.484 121.393,180.813 122.516,176.532 123.590 C 168.794 125.530,174.791 130.079,183.622 128.968 C 193.199 127.762,198.443 128.970,209.000 134.814 C 221.606 141.793,229.305 142.668,238.500 138.168 C 246.035 134.480,248.609 130.338,245.843 126.348 C 244.395 124.258,243.926 124.063,238.535 123.316 C 231.713 122.370,230.391 121.887,225.071 118.395 C 213.178 110.590,203.007 107.184,193.667 107.880 M214.694 107.789 C 214.771 107.856,215.433 108.012,216.167 108.135 C 217.122 108.295,217.358 108.262,217.000 108.017 C 216.550 107.711,214.360 107.494,214.694 107.789 M179.000 109.000 C 179.000 109.418,179.354 109.418,180.000 109.000 C 180.404 108.739,180.356 108.676,179.750 108.672 C 179.338 108.669,179.000 108.817,179.000 109.000 M177.500 109.333 C 177.387 109.517,177.519 109.667,177.794 109.667 C 178.069 109.667,178.387 109.517,178.500 109.333 C 178.613 109.150,178.481 109.000,178.206 109.000 C 177.931 109.000,177.613 109.150,177.500 109.333 M224.167 110.000 C 224.280 110.183,224.598 110.333,224.873 110.333 C 225.148 110.333,225.280 110.183,225.167 110.000 C 225.053 109.817,224.736 109.667,224.461 109.667 C 224.186 109.667,224.053 109.817,224.167 110.000 M172.833 110.667 C 172.720 110.850,172.852 111.000,173.127 111.000 C 173.402 111.000,173.720 110.850,173.833 110.667 C 173.947 110.483,173.814 110.333,173.539 110.333 C 173.264 110.333,172.947 110.483,172.833 110.667 M170.827 111.328 C 170.097 111.668,169.754 111.958,170.064 111.973 C 170.374 111.988,170.722 111.848,170.837 111.661 C 170.952 111.475,171.155 111.390,171.289 111.473 C 171.588 111.657,172.544 111.100,172.318 110.873 C 172.228 110.784,171.557 110.988,170.827 111.328 M230.333 111.829 C 230.333 112.073,232.746 113.032,232.921 112.857 C 233.004 112.774,232.513 112.472,231.829 112.186 C 230.473 111.620,230.333 111.586,230.333 111.829 M167.583 112.433 C 167.079 112.632,166.667 112.899,166.667 113.025 C 166.667 113.277,168.849 112.595,169.216 112.228 C 169.545 111.899,168.651 112.011,167.583 112.433 M164.917 113.569 C 164.229 113.845,163.667 114.211,163.667 114.381 C 163.667 114.551,164.004 114.505,164.417 114.278 C 164.829 114.051,165.368 113.832,165.614 113.791 C 166.137 113.704,166.504 113.391,166.306 113.200 C 166.229 113.127,165.604 113.293,164.917 113.569 M235.022 113.860 C 235.462 114.390,236.000 114.488,236.000 114.039 C 236.000 113.877,235.691 113.664,235.314 113.565 C 234.752 113.418,234.699 113.471,235.022 113.860 M161.917 114.903 C 161.229 115.179,160.667 115.539,160.667 115.702 C 160.667 116.162,161.206 116.055,161.664 115.504 C 161.890 115.231,162.178 115.071,162.304 115.148 C 162.584 115.322,163.542 114.762,163.324 114.552 C 163.237 114.469,162.604 114.627,161.917 114.903 M237.667 114.953 C 237.667 115.295,238.676 115.768,238.910 115.535 C 238.991 115.454,238.744 115.220,238.362 115.015 C 237.979 114.811,237.667 114.782,237.667 114.953 M159.667 116.000 C 159.402 116.163,159.297 116.408,159.432 116.543 C 159.567 116.678,159.853 116.614,160.067 116.400 C 160.570 115.896,160.289 115.615,159.667 116.000 M240.667 116.476 C 240.667 116.691,242.717 117.669,243.135 117.653 C 243.336 117.645,242.975 117.351,242.333 117.000 C 241.171 116.364,240.667 116.205,240.667 116.476 M156.940 117.510 C 155.403 118.310,154.641 119.000,155.294 119.000 C 155.477 119.000,155.720 118.850,155.834 118.666 C 155.947 118.482,156.706 118.028,157.520 117.657 C 158.334 117.287,159.000 116.912,159.000 116.825 C 159.000 116.530,158.505 116.695,156.940 117.510 M246.410 119.729 C 246.576 120.227,247.333 120.502,247.333 120.063 C 247.333 119.884,247.096 119.647,246.805 119.535 C 246.481 119.411,246.328 119.485,246.410 119.729 M151.222 120.889 C 150.817 121.294,150.992 121.649,151.500 121.454 C 151.775 121.348,152.000 121.128,152.000 120.964 C 152.000 120.615,151.541 120.570,151.222 120.889 M249.167 121.667 C 249.280 121.850,249.589 122.000,249.853 122.000 C 250.117 122.000,250.333 122.155,250.333 122.344 C 250.333 122.533,250.596 122.788,250.917 122.910 C 251.237 123.033,251.650 123.256,251.833 123.406 C 252.017 123.556,252.528 123.977,252.970 124.342 C 253.595 124.857,254.558 125.054,253.972 124.546 C 251.969 122.811,248.641 120.817,249.167 121.667 M254.410 125.396 C 254.576 125.894,255.333 126.168,255.333 125.730 C 255.333 125.551,255.096 125.314,254.805 125.202 C 254.481 125.078,254.328 125.152,254.410 125.396 M143.481 126.827 C 142.575 127.639,141.987 128.310,142.176 128.318 C 142.364 128.327,142.744 128.069,143.021 127.747 C 143.297 127.424,143.967 126.837,144.511 126.441 C 145.054 126.045,145.415 125.638,145.314 125.536 C 145.212 125.434,144.387 126.015,143.481 126.827 M168.235 129.477 C 160.279 136.661,158.352 139.291,159.977 140.744 C 162.022 142.570,165.045 141.765,171.250 137.743 C 172.834 136.716,171.888 137.646,169.333 139.626 C 166.565 141.772,166.191 142.466,167.276 143.448 C 168.929 144.944,171.568 143.902,180.877 138.077 C 189.368 132.764,190.318 132.206,190.520 132.409 C 190.591 132.480,189.654 133.120,188.438 133.832 C 178.473 139.661,176.015 142.524,179.996 143.665 C 182.284 144.322,195.206 136.815,199.495 132.339 L 200.416 131.378 198.125 130.696 C 194.095 129.498,190.793 129.268,184.091 129.718 C 176.797 130.209,175.236 129.914,173.200 127.660 C 171.715 126.016,172.309 125.798,168.235 129.477 M257.006 127.188 C 257.013 127.589,258.638 129.139,258.840 128.937 C 258.924 128.853,258.545 128.355,257.997 127.830 C 257.448 127.305,257.003 127.016,257.006 127.188 M260.671 130.822 C 261.494 131.641,262.315 132.316,262.496 132.322 C 262.676 132.328,262.151 131.663,261.329 130.844 C 260.506 130.025,259.685 129.350,259.504 129.344 C 259.324 129.338,259.849 130.003,260.671 130.822 M139.167 130.667 C 138.640 131.217,138.349 131.662,138.521 131.657 C 138.945 131.645,140.863 129.667,140.451 129.667 C 140.272 129.667,139.694 130.117,139.167 130.667 M135.892 133.938 C 135.402 134.451,135.000 135.003,135.000 135.165 C 135.000 135.327,135.471 134.978,136.047 134.389 C 136.624 133.799,137.025 133.247,136.940 133.162 C 136.855 133.077,136.383 133.426,135.892 133.938 M265.202 135.472 C 265.314 135.762,265.551 136.000,265.730 136.000 C 266.168 136.000,265.894 135.242,265.396 135.076 C 265.152 134.995,265.078 135.148,265.202 135.472 M132.056 138.222 C 131.309 139.095,130.779 139.890,130.877 139.988 C 130.974 140.086,131.270 139.866,131.534 139.499 C 131.797 139.133,132.403 138.415,132.881 137.903 C 133.359 137.391,133.674 136.896,133.581 136.803 C 133.488 136.711,132.802 137.349,132.056 138.222 M268.333 138.970 C 268.333 139.181,268.558 139.441,268.833 139.546 C 269.108 139.652,269.333 139.939,269.333 140.186 C 269.333 140.432,269.532 140.753,269.775 140.900 C 270.018 141.047,270.322 141.451,270.450 141.798 C 270.578 142.145,270.776 142.335,270.891 142.220 C 271.111 142.000,269.573 139.614,268.793 138.967 C 268.447 138.680,268.333 138.680,268.333 138.970 M272.213 143.898 C 272.106 144.005,272.440 144.635,272.957 145.297 C 273.474 145.958,274.065 146.800,274.271 147.167 C 274.478 147.533,274.651 147.642,274.657 147.409 C 274.670 146.831,272.459 143.653,272.213 143.898 M126.222 145.889 C 125.904 146.207,125.948 146.667,126.298 146.667 C 126.461 146.667,126.682 146.442,126.787 146.167 C 126.982 145.659,126.627 145.484,126.222 145.889 M125.202 147.528 C 125.078 147.852,125.152 148.005,125.396 147.924 C 125.894 147.758,126.168 147.000,125.730 147.000 C 125.551 147.000,125.314 147.238,125.202 147.528 M274.861 147.955 C 274.748 148.138,274.817 148.387,275.015 148.509 C 275.213 148.631,275.511 149.092,275.679 149.532 C 275.846 149.973,276.149 150.333,276.352 150.333 C 276.634 150.333,275.947 148.854,275.142 147.728 C 275.101 147.670,274.974 147.772,274.861 147.955 M123.353 150.712 C 122.610 151.930,122.474 152.492,123.000 152.167 C 123.183 152.053,123.333 151.794,123.333 151.590 C 123.333 151.386,123.582 150.944,123.887 150.608 C 124.191 150.271,124.349 149.905,124.238 149.794 C 124.127 149.682,123.728 150.096,123.353 150.712 M276.535 151.139 C 276.647 151.429,276.884 151.667,277.063 151.667 C 277.502 151.667,277.227 150.909,276.729 150.743 C 276.485 150.662,276.411 150.814,276.535 151.139 M278.016 153.500 C 278.008 153.995,278.603 154.842,278.812 154.633 C 278.912 154.533,278.774 154.162,278.507 153.809 C 278.240 153.456,278.019 153.317,278.016 153.500 M120.895 155.178 C 120.204 156.627,120.190 156.867,120.830 156.336 C 121.103 156.110,121.254 155.808,121.167 155.667 C 121.079 155.525,121.231 155.224,121.504 154.997 C 122.041 154.551,122.165 154.000,121.728 154.000 C 121.579 154.000,121.204 154.530,120.895 155.178 M119.360 158.376 C 119.345 158.491,119.106 159.129,118.829 159.793 C 118.534 160.499,118.465 161.000,118.662 161.000 C 118.848 161.000,119.000 160.730,119.000 160.400 C 119.000 160.070,119.167 159.633,119.371 159.429 C 119.575 159.225,119.662 158.858,119.564 158.612 C 119.466 158.367,119.374 158.261,119.360 158.376 M282.667 164.127 C 282.667 164.402,282.817 164.720,283.000 164.833 C 283.183 164.947,283.333 164.814,283.333 164.539 C 283.333 164.264,283.183 163.947,283.000 163.833 C 282.817 163.720,282.667 163.852,282.667 164.127 M116.910 164.535 C 116.776 164.668,116.667 165.008,116.667 165.289 C 116.667 165.664,116.765 165.701,117.037 165.429 C 117.241 165.225,117.351 164.886,117.281 164.675 C 117.210 164.464,117.043 164.401,116.910 164.535 M114.910 170.868 C 114.776 171.002,114.667 171.341,114.667 171.622 C 114.667 171.997,114.765 172.035,115.037 171.762 C 115.241 171.559,115.351 171.219,115.281 171.008 C 115.210 170.798,115.043 170.734,114.910 170.868 M286.113 175.333 C 286.229 175.792,286.326 176.429,286.329 176.750 C 286.331 177.071,286.468 177.333,286.632 177.333 C 286.961 177.333,286.543 175.085,286.147 174.724 C 286.012 174.601,285.997 174.875,286.113 175.333 M112.667 180.667 C 112.667 181.289,112.756 181.378,113.067 181.067 C 113.378 180.756,113.378 180.578,113.067 180.267 C 112.756 179.956,112.667 180.044,112.667 180.667 M112.566 182.131 C 112.429 182.478,112.396 182.841,112.492 182.937 C 112.796 183.241,113.064 182.742,112.936 182.109 C 112.820 181.529,112.802 181.530,112.566 182.131 M287.523 183.884 C 287.831 185.586,288.000 185.713,288.000 184.242 C 288.000 183.580,287.840 182.941,287.645 182.820 C 287.404 182.671,287.365 183.010,287.523 183.884 M112.000 186.389 C 112.000 188.026,112.158 187.980,112.471 186.250 C 112.614 185.459,112.569 185.000,112.348 185.000 C 112.157 185.000,112.000 185.625,112.000 186.389 M287.844 186.098 C 287.701 186.426,287.678 186.789,287.792 186.903 C 288.131 187.242,288.404 186.766,288.248 186.109 C 288.110 185.527,288.092 185.527,287.844 186.098 M111.667 190.333 C 111.667 190.956,111.756 191.044,112.067 190.733 C 112.378 190.422,112.378 190.244,112.067 189.933 C 111.756 189.622,111.667 189.711,111.667 190.333 M288.000 191.147 C 288.000 191.411,288.150 191.720,288.333 191.833 C 288.517 191.947,288.667 191.730,288.667 191.353 C 288.667 190.976,288.517 190.667,288.333 190.667 C 288.150 190.667,288.000 190.883,288.000 191.147 M288.130 194.500 C 288.134 195.692,288.256 196.667,288.402 196.667 C 288.548 196.667,288.667 195.692,288.667 194.500 C 288.667 193.308,288.544 192.333,288.394 192.333 C 288.245 192.333,288.125 193.308,288.130 194.500 M111.667 198.444 C 111.667 199.667,111.810 200.667,111.985 200.667 C 112.279 200.667,112.105 196.692,111.796 196.361 C 111.725 196.285,111.667 197.222,111.667 198.444 M288.177 197.431 C 288.034 197.760,288.011 198.122,288.125 198.237 C 288.464 198.575,288.737 198.100,288.581 197.443 C 288.443 196.860,288.425 196.860,288.177 197.431 M287.482 205.696 C 287.359 205.895,287.425 206.225,287.629 206.429 C 287.901 206.701,288.000 206.605,288.000 206.067 C 288.000 205.262,287.827 205.138,287.482 205.696 M112.333 206.667 C 112.333 207.289,112.422 207.378,112.733 207.067 C 113.044 206.756,113.044 206.578,112.733 206.267 C 112.422 205.956,112.333 206.044,112.333 206.667 M112.672 208.528 C 112.675 209.063,112.830 209.725,113.017 210.000 C 113.262 210.358,113.295 210.122,113.135 209.167 C 112.858 207.513,112.665 207.247,112.672 208.528 M286.910 210.201 C 286.776 210.335,286.667 210.674,286.667 210.956 C 286.667 211.331,286.765 211.368,287.037 211.096 C 287.241 210.892,287.351 210.552,287.281 210.342 C 287.210 210.131,287.043 210.068,286.910 210.201 M113.872 214.917 C 113.992 215.421,114.230 216.058,114.401 216.333 C 114.626 216.694,114.661 216.601,114.527 216.000 C 114.426 215.542,114.340 214.904,114.338 214.583 C 114.335 214.262,114.180 214.000,113.994 214.000 C 113.792 214.000,113.743 214.374,113.872 214.917 M285.910 214.868 C 285.776 215.002,285.667 215.341,285.667 215.622 C 285.667 215.997,285.765 216.035,286.037 215.762 C 286.241 215.559,286.351 215.219,286.281 215.008 C 286.210 214.798,286.043 214.734,285.910 214.868 M284.915 218.750 C 284.826 219.162,284.642 219.762,284.507 220.083 C 284.372 220.404,284.397 220.667,284.562 220.667 C 284.727 220.667,285.022 220.067,285.218 219.333 C 285.414 218.600,285.462 218.000,285.326 218.000 C 285.189 218.000,285.005 218.338,284.915 218.750 M115.507 220.917 C 115.642 221.237,115.826 221.838,115.915 222.250 C 116.005 222.662,116.226 223.000,116.408 223.000 C 116.593 223.000,116.631 222.745,116.493 222.417 C 116.358 222.096,116.174 221.496,116.085 221.083 C 115.995 220.671,115.774 220.333,115.592 220.333 C 115.407 220.333,115.369 220.589,115.507 220.917 M116.333 223.459 C 116.333 223.795,117.388 226.056,117.495 225.950 C 117.697 225.748,116.857 223.333,116.585 223.333 C 116.447 223.333,116.333 223.390,116.333 223.459 M117.569 226.996 C 117.664 227.361,117.869 227.581,118.023 227.486 C 118.351 227.283,118.054 226.333,117.662 226.333 C 117.516 226.333,117.474 226.632,117.569 226.996 M280.911 230.000 C 280.623 230.733,280.502 231.333,280.643 231.333 C 280.784 231.333,281.135 230.733,281.423 230.000 C 281.711 229.267,281.831 228.667,281.690 228.667 C 281.550 228.667,281.199 229.267,280.911 230.000 M118.681 229.583 C 118.688 229.721,118.982 230.358,119.333 231.000 C 120.101 232.401,120.221 231.879,119.476 230.385 C 118.973 229.377,118.651 229.052,118.681 229.583 M120.014 232.583 C 120.050 233.227,121.259 235.057,121.447 234.753 C 121.564 234.564,121.436 234.224,121.163 233.997 C 120.890 233.770,120.667 233.303,120.667 232.959 C 120.667 232.615,120.517 232.333,120.333 232.333 C 120.150 232.333,120.006 232.446,120.014 232.583 M121.535 235.805 C 121.647 236.096,121.884 236.333,122.063 236.333 C 122.502 236.333,122.227 235.576,121.729 235.410 C 121.485 235.328,121.411 235.481,121.535 235.805 M277.697 236.755 C 277.519 237.221,277.215 237.700,277.021 237.821 C 276.604 238.078,276.547 238.667,276.938 238.667 C 277.281 238.667,278.422 236.310,278.190 236.079 C 278.096 235.985,277.874 236.289,277.697 236.755 M123.009 238.209 C 123.022 238.655,125.333 242.188,125.333 241.762 C 125.333 241.224,124.217 239.338,123.897 239.335 C 123.749 239.334,123.710 239.200,123.810 239.038 C 123.910 238.875,123.769 238.557,123.496 238.330 C 123.223 238.104,123.004 238.049,123.009 238.209 M274.449 242.202 C 274.320 242.549,274.129 242.908,274.024 243.000 C 273.468 243.485,272.358 245.333,272.622 245.333 C 273.039 245.333,275.139 242.028,274.884 241.773 C 274.773 241.662,274.577 241.855,274.449 242.202 M126.535 244.139 C 126.647 244.429,126.884 244.667,127.063 244.667 C 127.502 244.667,127.227 243.909,126.729 243.743 C 126.485 243.662,126.411 243.814,126.535 244.139 M228.967 245.470 C 228.124 245.709,223.849 248.153,219.467 250.901 C 211.641 255.810,209.333 257.167,209.333 256.865 C 209.333 256.781,210.871 255.786,212.750 254.654 C 221.345 249.475,223.629 246.980,220.844 245.816 C 218.113 244.675,211.812 247.886,202.477 255.175 C 199.162 257.764,199.174 257.726,201.417 258.419 C 205.170 259.580,207.288 259.750,215.060 259.518 C 223.907 259.254,224.772 259.405,226.889 261.578 L 228.278 263.005 231.729 259.889 C 235.127 256.820,239.437 252.361,240.706 250.600 L 241.354 249.701 240.427 248.663 C 238.596 246.614,235.893 247.087,230.508 250.399 C 226.544 252.836,226.550 252.817,230.752 249.572 C 234.673 246.545,233.630 244.148,228.967 245.470 M165.754 249.121 C 155.236 252.629,150.502 258.247,153.982 263.092 C 155.382 265.041,155.903 265.245,161.467 266.017 C 168.336 266.971,169.169 267.282,174.833 270.997 C 201.452 288.455,222.685 284.331,244.336 257.500 C 246.828 254.412,247.015 254.074,246.876 252.904 C 246.305 248.087,241.336 250.390,234.080 258.833 C 227.014 267.055,221.604 269.347,209.333 269.321 C 204.933 269.311,205.489 268.897,210.839 268.200 C 219.606 267.058,226.362 265.151,226.827 263.688 C 227.664 261.049,223.083 259.672,215.709 260.345 C 205.969 261.235,201.641 260.252,191.832 254.925 C 180.232 248.626,172.440 246.891,165.754 249.121 M130.333 249.016 C 130.333 249.229,130.708 249.849,131.167 250.394 C 131.744 251.080,132.000 251.220,132.000 250.848 C 132.000 250.554,131.775 250.226,131.500 250.121 C 131.225 250.015,131.000 249.729,131.000 249.484 C 131.000 249.239,130.850 248.947,130.667 248.833 C 130.483 248.720,130.333 248.802,130.333 249.016 M133.548 253.083 C 134.071 253.939,136.115 255.996,136.280 255.831 C 136.374 255.737,136.124 255.354,135.724 254.982 C 135.323 254.609,134.754 253.935,134.460 253.485 C 133.925 252.670,133.064 252.290,133.548 253.083 M265.556 253.556 C 265.237 253.874,265.282 254.333,265.631 254.333 C 265.795 254.333,266.015 254.108,266.121 253.833 C 266.316 253.325,265.960 253.151,265.556 253.556 M261.004 258.511 C 260.182 259.330,259.657 259.995,259.838 259.989 C 260.019 259.983,260.840 259.308,261.662 258.489 C 262.485 257.670,263.010 257.005,262.829 257.011 C 262.648 257.017,261.827 257.692,261.004 258.511 M258.038 261.183 C 256.906 262.376,257.294 262.463,258.589 261.306 C 259.187 260.771,259.487 260.336,259.255 260.339 C 259.023 260.342,258.476 260.722,258.038 261.183 M141.333 261.000 C 141.333 261.183,141.446 261.337,141.583 261.341 C 141.721 261.345,142.417 261.874,143.130 262.517 C 143.843 263.159,144.518 263.593,144.629 263.482 C 144.741 263.370,144.388 262.955,143.844 262.559 C 143.301 262.163,142.630 261.576,142.354 261.253 C 141.797 260.603,141.333 260.488,141.333 261.000 M256.222 262.556 C 255.817 262.960,255.992 263.316,256.500 263.121 C 256.775 263.015,257.000 262.795,257.000 262.631 C 257.000 262.282,256.541 262.237,256.222 262.556 M254.940 263.766 C 254.698 264.003,253.450 264.976,252.167 265.927 C 250.883 266.877,249.652 267.808,249.431 267.994 C 249.209 268.181,248.923 268.333,248.796 268.333 C 248.668 268.333,248.071 268.708,247.470 269.167 C 246.869 269.625,246.227 270.000,246.042 270.000 C 245.857 270.000,245.613 270.150,245.500 270.333 C 245.387 270.517,245.423 270.667,245.581 270.667 C 246.310 270.667,255.667 264.109,255.667 263.598 C 255.667 263.219,255.445 263.270,254.940 263.766 M145.076 264.062 C 145.242 264.561,146.000 264.835,146.000 264.397 C 146.000 264.218,145.762 263.980,145.472 263.869 C 145.148 263.744,144.995 263.819,145.076 264.062 M147.667 265.941 C 147.667 266.363,152.327 269.451,152.581 269.197 C 152.704 269.074,152.473 268.887,152.069 268.781 C 151.664 268.675,151.333 268.452,151.333 268.284 C 151.333 268.116,151.071 267.879,150.750 267.756 C 150.429 267.634,150.017 267.411,149.833 267.261 C 149.650 267.110,149.140 266.690,148.699 266.327 C 147.810 265.594,147.667 265.540,147.667 265.941 M155.667 271.264 C 155.667 271.592,159.353 273.425,159.572 273.206 C 159.660 273.118,159.051 272.736,158.219 272.357 C 157.388 271.978,156.614 271.518,156.501 271.334 C 156.255 270.937,155.667 270.888,155.667 271.264 M160.000 273.605 C 160.000 273.973,162.365 275.080,162.615 274.829 C 162.859 274.585,161.955 273.989,161.637 274.185 C 161.512 274.263,161.224 274.103,160.997 273.830 C 160.551 273.292,160.000 273.168,160.000 273.605 M236.833 275.000 C 236.720 275.183,236.336 275.333,235.980 275.333 C 235.624 275.333,235.333 275.483,235.333 275.667 C 235.333 276.133,235.659 276.068,237.000 275.333 C 237.690 274.955,237.937 274.689,237.603 274.681 C 237.293 274.673,236.947 274.817,236.833 275.000 M233.830 276.339 C 233.715 276.525,233.511 276.610,233.378 276.527 C 233.079 276.343,232.122 276.900,232.349 277.127 C 232.439 277.216,233.109 277.012,233.839 276.672 C 234.569 276.332,234.913 276.042,234.603 276.027 C 234.293 276.012,233.945 276.152,233.830 276.339 M170.667 278.333 C 171.313 278.751,171.667 278.751,171.667 278.333 C 171.667 278.150,171.329 278.002,170.917 278.005 C 170.310 278.009,170.262 278.072,170.667 278.333 M172.000 278.562 C 172.000 278.727,172.600 279.022,173.333 279.218 C 174.067 279.414,174.667 279.462,174.667 279.326 C 174.667 279.189,174.329 279.005,173.917 278.915 C 173.504 278.826,172.904 278.642,172.583 278.507 C 172.262 278.372,172.000 278.397,172.000 278.562 M175.167 279.667 C 175.280 279.850,175.598 280.000,175.873 280.000 C 176.148 280.000,176.280 279.850,176.167 279.667 C 176.053 279.483,175.736 279.333,175.461 279.333 C 175.186 279.333,175.053 279.483,175.167 279.667 M176.667 280.025 C 176.667 280.149,177.079 280.342,177.583 280.454 C 178.088 280.566,179.063 280.794,179.750 280.960 C 180.438 281.127,180.999 281.166,180.998 281.048 C 180.997 280.930,180.022 280.601,178.832 280.317 C 177.641 280.033,176.667 279.902,176.667 280.025 M218.667 281.000 C 218.262 281.261,218.310 281.324,218.917 281.328 C 219.329 281.331,219.667 281.183,219.667 281.000 C 219.667 280.582,219.313 280.582,218.667 281.000 M217.000 281.333 C 216.596 281.595,216.644 281.657,217.250 281.662 C 217.662 281.664,218.000 281.517,218.000 281.333 C 218.000 280.916,217.646 280.916,217.000 281.333 M183.333 281.649 C 183.608 281.837,184.271 281.992,184.806 281.995 C 186.086 282.002,185.820 281.809,184.167 281.532 C 183.211 281.372,182.975 281.405,183.333 281.649 M213.667 282.000 C 213.667 282.183,213.892 282.333,214.167 282.333 C 214.442 282.333,214.667 282.183,214.667 282.000 C 214.667 281.817,214.442 281.667,214.167 281.667 C 213.892 281.667,213.667 281.817,213.667 282.000 M187.833 282.333 C 187.947 282.517,188.264 282.667,188.539 282.667 C 188.814 282.667,188.947 282.517,188.833 282.333 C 188.720 282.150,188.402 282.000,188.127 282.000 C 187.852 282.000,187.720 282.150,187.833 282.333 M191.000 282.667 C 191.000 282.850,191.309 283.000,191.686 283.000 C 192.064 283.000,192.280 282.850,192.167 282.667 C 192.053 282.483,191.745 282.333,191.480 282.333 C 191.216 282.333,191.000 282.483,191.000 282.667 M208.833 282.667 C 208.720 282.850,208.852 283.000,209.127 283.000 C 209.402 283.000,209.720 282.850,209.833 282.667 C 209.947 282.483,209.814 282.333,209.539 282.333 C 209.264 282.333,208.947 282.483,208.833 282.667 M194.721 283.040 C 195.305 283.411,197.000 283.415,197.000 283.045 C 197.000 282.887,196.387 282.758,195.637 282.758 C 194.763 282.758,194.434 282.859,194.721 283.040 M202.500 283.000 C 202.387 283.183,202.612 283.333,203.000 283.333 C 203.388 283.333,203.613 283.183,203.500 283.000 C 203.387 282.817,203.162 282.667,203.000 282.667 C 202.838 282.667,202.613 282.817,202.500 283.000 M204.000 283.000 C 204.000 283.183,204.309 283.333,204.686 283.333 C 205.064 283.333,205.280 283.183,205.167 283.000 C 205.053 282.817,204.745 282.667,204.480 282.667 C 204.216 282.667,204.000 282.817,204.000 283.000 " stroke="none" fill="#8155BA" fill-rule="evenodd"></path><path id="path1" d="M201.338 106.536 C 201.335 106.789,200.015 106.895,197.167 106.870 C 194.875 106.850,193.000 106.947,193.000 107.086 C 193.000 107.225,192.250 107.295,191.333 107.242 C 190.417 107.189,189.667 107.253,189.667 107.384 C 189.667 107.515,189.238 107.610,188.715 107.595 C 188.191 107.580,187.591 107.674,187.381 107.804 C 187.170 107.934,186.998 107.845,186.995 107.603 C 186.991 107.264,186.924 107.270,186.696 107.631 C 186.523 107.903,186.111 108.020,185.701 107.912 C 185.315 107.812,185.000 107.883,185.000 108.070 C 185.000 108.258,184.625 108.339,184.167 108.252 C 183.708 108.164,183.333 108.239,183.333 108.418 C 183.333 108.598,182.964 108.674,182.512 108.587 C 182.060 108.501,181.647 108.559,181.594 108.717 C 181.542 108.874,180.863 109.040,180.085 109.085 C 179.307 109.130,178.669 109.297,178.668 109.456 C 178.667 109.614,178.297 109.674,177.845 109.587 C 177.393 109.501,176.980 109.560,176.927 109.718 C 176.830 110.010,175.652 110.373,174.583 110.440 C 174.262 110.460,174.000 110.594,174.000 110.738 C 174.000 110.882,173.723 111.000,173.385 111.000 C 173.046 111.000,172.325 111.222,171.782 111.492 C 171.240 111.763,170.504 112.037,170.148 112.100 C 169.792 112.164,168.922 112.466,168.215 112.772 C 167.508 113.079,166.795 113.246,166.631 113.145 C 166.467 113.044,166.333 113.117,166.333 113.309 C 166.333 113.719,164.051 114.737,163.666 114.500 C 163.522 114.410,163.311 114.577,163.199 114.870 C 163.082 115.174,162.781 115.320,162.497 115.212 C 162.224 115.107,162.000 115.138,162.000 115.282 C 162.000 115.668,159.672 116.710,159.310 116.486 C 159.140 116.380,159.000 116.528,159.000 116.814 C 159.000 117.282,158.611 117.482,157.917 117.373 C 157.779 117.351,157.667 117.449,157.667 117.591 C 157.667 117.733,157.104 118.138,156.417 118.491 C 155.729 118.844,154.914 119.343,154.604 119.599 C 154.295 119.856,153.898 119.976,153.723 119.868 C 153.547 119.759,153.317 119.895,153.212 120.169 C 153.107 120.443,152.807 120.667,152.546 120.667 C 152.285 120.667,151.979 120.907,151.866 121.201 C 151.749 121.506,151.448 121.654,151.164 121.545 C 150.862 121.429,150.667 121.547,150.667 121.844 C 150.667 122.113,150.517 122.333,150.333 122.333 C 149.670 122.333,149.493 122.433,149.061 123.050 C 148.819 123.395,148.497 123.601,148.345 123.507 C 148.194 123.414,147.984 123.561,147.879 123.835 C 147.774 124.109,147.449 124.333,147.157 124.333 C 146.866 124.333,146.713 124.473,146.819 124.643 C 146.924 124.813,146.721 125.044,146.369 125.155 C 146.017 125.267,145.644 125.578,145.541 125.846 C 145.438 126.114,145.141 126.333,144.879 126.333 C 144.618 126.333,144.318 126.558,144.213 126.833 C 144.107 127.108,143.827 127.333,143.591 127.333 C 143.354 127.333,142.969 127.639,142.736 128.013 C 142.503 128.387,142.143 128.589,141.938 128.461 C 141.732 128.334,141.653 128.375,141.762 128.551 C 141.975 128.896,140.276 130.667,139.732 130.667 C 139.552 130.667,139.318 130.892,139.213 131.167 C 139.107 131.442,138.766 131.667,138.455 131.667 C 138.144 131.667,137.988 131.765,138.108 131.886 C 138.410 132.187,137.663 133.037,137.296 132.810 C 137.133 132.710,137.000 132.866,137.000 133.157 C 137.000 133.449,136.775 133.774,136.500 133.879 C 136.225 133.985,136.000 134.219,136.000 134.399 C 136.000 134.943,134.230 136.642,133.885 136.429 C 133.708 136.320,133.668 136.399,133.795 136.604 C 133.922 136.810,133.720 137.169,133.346 137.403 C 132.972 137.636,132.667 138.021,132.667 138.257 C 132.667 138.494,132.442 138.774,132.167 138.879 C 131.892 138.985,131.667 139.285,131.667 139.546 C 131.667 139.807,131.447 140.105,131.179 140.208 C 130.911 140.311,130.601 140.683,130.489 141.036 C 130.377 141.388,130.146 141.590,129.976 141.485 C 129.806 141.380,129.667 141.533,129.667 141.824 C 129.667 142.116,129.443 142.440,129.169 142.545 C 128.895 142.651,128.747 142.861,128.841 143.012 C 128.935 143.164,128.671 143.526,128.256 143.817 C 127.840 144.108,127.537 144.418,127.583 144.506 C 127.809 144.940,127.616 145.333,127.177 145.333 C 126.880 145.333,126.763 145.529,126.878 145.831 C 126.985 146.108,126.846 146.413,126.565 146.521 C 126.287 146.628,125.967 147.085,125.854 147.538 C 125.722 148.061,125.499 148.275,125.240 148.127 C 125.016 147.998,124.936 148.007,125.061 148.146 C 125.342 148.459,124.053 151.000,123.613 151.000 C 123.438 151.000,123.379 151.138,123.483 151.306 C 123.588 151.475,123.476 151.813,123.234 152.056 C 122.993 152.300,122.697 152.762,122.575 153.083 C 122.454 153.404,122.191 153.667,121.991 153.667 C 121.791 153.667,121.717 153.812,121.827 153.990 C 122.041 154.336,121.118 156.364,120.592 156.704 C 120.418 156.816,120.313 156.966,120.358 157.037 C 120.542 157.328,119.590 159.667,119.288 159.667 C 119.108 159.667,119.046 159.805,119.150 159.973 C 119.254 160.142,119.139 160.481,118.893 160.726 C 118.647 160.972,118.503 161.341,118.571 161.548 C 118.640 161.754,118.502 162.128,118.265 162.378 C 118.028 162.628,117.821 162.983,117.805 163.167 C 117.726 164.101,117.219 165.667,116.995 165.667 C 116.855 165.667,116.750 165.854,116.761 166.083 C 116.800 166.871,116.250 168.667,115.969 168.667 C 115.814 168.667,115.767 168.872,115.863 169.124 C 115.959 169.375,115.842 169.788,115.603 170.040 C 115.363 170.293,115.129 171.100,115.084 171.833 C 115.038 172.566,114.859 173.214,114.686 173.271 C 114.513 173.329,114.454 173.594,114.556 173.859 C 114.658 174.125,114.576 174.541,114.374 174.785 C 114.171 175.029,114.098 175.320,114.211 175.433 C 114.323 175.546,114.305 175.907,114.169 176.236 C 114.034 176.564,113.863 177.433,113.789 178.167 C 113.715 178.900,113.529 179.543,113.376 179.595 C 113.222 179.647,113.168 180.060,113.254 180.512 C 113.340 180.964,113.277 181.333,113.113 181.333 C 112.949 181.333,112.849 181.959,112.892 182.723 C 112.935 183.487,112.886 184.248,112.784 184.413 C 112.577 184.749,112.306 188.287,112.294 190.828 C 112.289 191.742,112.109 192.603,111.893 192.740 C 111.598 192.927,111.604 192.991,111.917 192.995 C 112.146 192.998,112.333 193.300,112.333 193.667 C 112.333 194.033,112.146 194.336,111.917 194.338 C 111.640 194.342,111.668 194.450,112.000 194.662 C 112.413 194.925,112.427 195.097,112.081 195.656 C 111.850 196.029,111.793 196.333,111.954 196.333 C 112.115 196.333,112.229 197.758,112.207 199.500 C 112.185 201.242,112.280 202.667,112.419 202.667 C 112.558 202.667,112.628 203.415,112.576 204.330 C 112.523 205.245,112.583 206.032,112.709 206.080 C 112.835 206.128,113.023 206.961,113.126 207.932 C 113.229 208.903,113.402 209.841,113.510 210.016 C 113.618 210.190,113.510 210.336,113.270 210.338 C 112.931 210.342,112.937 210.409,113.298 210.638 C 113.570 210.810,113.686 211.222,113.579 211.633 C 113.478 212.018,113.549 212.333,113.737 212.333 C 113.924 212.333,114.006 212.708,113.918 213.167 C 113.831 213.625,113.872 214.000,114.009 214.000 C 114.147 214.000,114.375 214.563,114.516 215.250 C 114.658 215.938,114.837 216.725,114.914 217.000 C 114.992 217.275,115.075 217.762,115.099 218.083 C 115.123 218.404,115.244 218.667,115.367 218.667 C 115.490 218.667,115.677 219.118,115.782 219.669 C 115.999 220.813,116.131 221.267,116.479 222.067 C 116.615 222.379,116.637 222.779,116.527 222.956 C 116.418 223.132,116.488 223.329,116.683 223.394 C 116.877 223.459,117.080 223.734,117.134 224.006 C 117.188 224.278,117.344 224.755,117.479 225.067 C 117.615 225.379,117.629 225.792,117.510 225.984 C 117.391 226.176,117.451 226.333,117.643 226.333 C 118.056 226.333,119.070 228.618,118.829 229.007 C 118.737 229.155,118.802 229.327,118.973 229.388 C 119.144 229.450,119.332 229.721,119.392 229.992 C 119.451 230.263,119.694 230.693,119.932 230.947 C 120.169 231.202,120.307 231.579,120.238 231.786 C 120.169 231.992,120.314 232.362,120.560 232.607 C 120.805 232.853,120.921 233.192,120.817 233.360 C 120.713 233.529,120.758 233.667,120.919 233.667 C 121.326 233.667,122.386 235.978,122.153 236.356 C 122.047 236.527,122.195 236.667,122.480 236.667 C 122.948 236.667,123.149 237.056,123.039 237.750 C 123.018 237.887,123.116 238.000,123.258 238.000 C 123.399 238.000,123.810 238.563,124.171 239.250 C 124.532 239.938,124.915 240.575,125.022 240.667 C 125.129 240.758,125.506 241.358,125.858 242.000 C 126.211 242.642,126.575 243.242,126.667 243.333 C 127.428 244.095,128.319 245.754,128.130 246.059 C 127.996 246.276,128.045 246.345,128.244 246.222 C 128.435 246.104,129.214 246.830,129.973 247.837 C 130.733 248.843,131.242 249.667,131.103 249.667 C 130.965 249.667,131.188 249.902,131.598 250.189 C 132.009 250.477,132.269 250.835,132.176 250.985 C 132.083 251.135,132.325 251.341,132.714 251.442 C 133.196 251.568,133.355 251.797,133.214 252.164 C 133.100 252.460,133.127 252.627,133.273 252.537 C 133.562 252.358,135.333 254.095,135.333 254.557 C 135.333 254.712,135.639 255.031,136.013 255.264 C 136.387 255.497,136.589 255.857,136.461 256.062 C 136.333 256.270,136.379 256.344,136.564 256.230 C 136.748 256.116,137.334 256.510,137.866 257.106 C 138.398 257.701,139.394 258.612,140.080 259.131 C 140.766 259.650,141.244 260.207,141.144 260.370 C 141.043 260.533,141.199 260.667,141.491 260.667 C 141.782 260.667,142.107 260.892,142.213 261.167 C 142.318 261.442,142.606 261.667,142.852 261.667 C 143.099 261.667,143.420 261.865,143.567 262.108 C 143.713 262.351,144.321 262.904,144.917 263.337 C 145.512 263.771,146.000 264.317,146.000 264.552 C 146.000 264.794,146.216 264.896,146.497 264.788 C 146.781 264.679,147.082 264.827,147.200 265.132 C 147.312 265.426,147.618 265.667,147.879 265.667 C 148.141 265.667,148.441 265.892,148.546 266.167 C 148.652 266.442,148.952 266.667,149.213 266.667 C 149.474 266.667,149.774 266.891,149.879 267.165 C 149.984 267.439,150.194 267.586,150.345 267.493 C 150.497 267.399,150.819 267.605,151.061 267.950 C 151.493 268.567,151.670 268.667,152.333 268.667 C 152.517 268.667,152.667 268.901,152.667 269.186 C 152.667 269.494,152.824 269.609,153.051 269.469 C 153.262 269.338,153.637 269.508,153.884 269.846 C 154.131 270.184,154.333 270.356,154.333 270.228 C 154.333 269.943,158.122 272.032,158.278 272.403 C 158.339 272.548,158.606 272.667,158.872 272.667 C 159.137 272.667,159.440 272.891,159.545 273.165 C 159.651 273.439,159.861 273.586,160.012 273.493 C 160.349 273.284,162.667 274.354,162.667 274.718 C 162.667 274.862,162.890 274.893,163.164 274.788 C 163.443 274.681,163.747 274.823,163.858 275.111 C 163.966 275.393,164.248 275.550,164.485 275.460 C 164.721 275.369,165.122 275.503,165.377 275.758 C 165.631 276.012,166.025 276.158,166.253 276.082 C 166.480 276.007,166.751 276.165,166.855 276.435 C 166.967 276.727,167.304 276.858,167.684 276.759 C 168.081 276.655,168.404 276.795,168.531 277.127 C 168.644 277.422,168.874 277.578,169.041 277.474 C 169.443 277.226,171.667 277.967,171.667 278.349 C 171.667 278.512,171.884 278.562,172.151 278.460 C 172.417 278.358,172.829 278.396,173.067 278.544 C 173.305 278.693,173.722 278.848,173.994 278.889 C 174.266 278.930,174.533 279.100,174.589 279.267 C 174.644 279.433,175.060 279.499,175.512 279.413 C 175.977 279.324,176.333 279.413,176.333 279.617 C 176.333 279.816,176.551 279.895,176.817 279.793 C 177.084 279.691,177.496 279.729,177.734 279.878 C 177.972 280.026,178.317 280.175,178.500 280.209 C 178.683 280.242,179.208 280.358,179.667 280.465 C 180.125 280.572,180.950 280.759,181.500 280.880 C 182.050 281.000,182.610 281.264,182.745 281.466 C 182.912 281.716,182.991 281.694,182.995 281.397 C 182.998 281.157,183.143 281.049,183.318 281.157 C 183.493 281.265,184.430 281.438,185.401 281.541 C 186.372 281.644,187.209 281.843,187.262 281.982 C 187.314 282.122,187.726 282.166,188.178 282.079 C 188.694 281.981,189.000 282.076,189.000 282.335 C 189.000 282.634,189.119 282.650,189.428 282.393 C 189.668 282.194,190.050 282.158,190.298 282.312 C 190.541 282.462,191.039 282.507,191.404 282.411 C 191.777 282.314,192.197 282.442,192.362 282.702 C 192.593 283.067,192.658 283.072,192.662 282.728 C 192.665 282.452,192.897 282.362,193.287 282.485 C 193.628 282.594,195.353 282.699,197.120 282.720 C 199.232 282.745,200.335 282.885,200.338 283.129 C 200.342 283.400,200.409 283.400,200.588 283.128 C 200.726 282.919,201.860 282.738,203.167 282.715 C 206.756 282.654,210.262 282.417,210.591 282.214 C 210.754 282.113,211.511 282.065,212.274 282.108 C 213.037 282.150,213.699 282.071,213.747 281.932 C 213.794 281.793,214.433 281.619,215.167 281.545 C 215.900 281.471,216.769 281.299,217.098 281.164 C 217.426 281.028,217.788 281.010,217.900 281.123 C 218.013 281.235,218.305 281.162,218.548 280.960 C 218.792 280.758,219.209 280.675,219.474 280.777 C 219.740 280.879,220.004 280.831,220.062 280.670 C 220.119 280.510,220.767 280.331,221.500 280.273 C 222.233 280.214,222.915 280.058,223.014 279.925 C 223.114 279.792,223.489 279.627,223.848 279.558 C 224.207 279.490,224.725 279.343,225.000 279.233 C 225.977 278.842,228.506 278.191,228.917 278.225 C 229.146 278.244,229.333 278.126,229.333 277.963 C 229.333 277.800,229.624 277.667,229.980 277.667 C 230.336 277.667,230.728 277.504,230.851 277.304 C 230.974 277.105,231.358 277.016,231.704 277.106 C 232.050 277.197,232.333 277.137,232.333 276.973 C 232.333 276.596,234.646 275.614,235.007 275.838 C 235.155 275.929,235.327 275.864,235.388 275.694 C 235.450 275.523,235.721 275.335,235.992 275.275 C 236.263 275.215,236.695 274.971,236.952 274.731 C 237.209 274.491,237.613 274.369,237.849 274.460 C 238.085 274.550,238.367 274.393,238.475 274.111 C 238.586 273.823,238.890 273.681,239.169 273.788 C 239.443 273.893,239.667 273.845,239.667 273.681 C 239.667 273.364,242.955 271.650,243.470 271.698 C 243.637 271.714,243.907 271.488,244.070 271.197 C 244.233 270.905,244.566 270.667,244.809 270.667 C 245.053 270.667,245.437 270.443,245.664 270.170 C 245.890 269.897,246.193 269.746,246.336 269.835 C 246.480 269.924,246.683 269.772,246.788 269.498 C 246.893 269.224,247.209 269.000,247.490 269.000 C 247.770 269.000,248.001 268.887,248.002 268.750 C 248.004 268.491,250.062 267.221,250.303 267.331 C 250.379 267.365,250.574 267.155,250.737 266.863 C 250.900 266.572,251.235 266.333,251.481 266.333 C 251.727 266.333,252.015 266.108,252.121 265.833 C 252.226 265.558,252.526 265.333,252.787 265.333 C 253.048 265.333,253.348 265.108,253.454 264.833 C 253.559 264.558,253.859 264.333,254.121 264.333 C 254.382 264.333,254.682 264.108,254.787 263.833 C 254.893 263.558,255.171 263.327,255.406 263.319 C 255.641 263.311,256.201 262.861,256.651 262.319 C 257.101 261.777,257.627 261.333,257.821 261.333 C 258.015 261.333,258.364 261.028,258.597 260.654 C 258.831 260.280,259.167 260.064,259.344 260.173 C 259.522 260.283,259.667 260.197,259.667 259.983 C 259.667 259.456,261.065 258.013,261.583 258.006 C 261.813 258.003,262.000 257.834,262.000 257.630 C 262.000 257.118,263.409 255.679,263.917 255.672 C 264.146 255.669,264.296 255.535,264.250 255.373 C 264.204 255.212,264.692 254.551,265.333 253.905 C 265.975 253.260,266.854 252.268,267.286 251.701 C 267.718 251.135,268.228 250.768,268.420 250.887 C 268.629 251.016,268.670 250.942,268.523 250.704 C 268.231 250.231,268.940 249.257,269.379 249.528 C 269.546 249.632,269.662 249.593,269.635 249.441 C 269.514 248.740,269.709 248.333,270.167 248.333 C 270.442 248.333,270.649 248.221,270.627 248.083 C 270.518 247.389,270.718 247.000,271.186 247.000 C 271.472 247.000,271.621 246.862,271.517 246.694 C 271.412 246.525,271.524 246.187,271.766 245.944 C 272.007 245.700,272.303 245.237,272.425 244.917 C 272.546 244.596,272.800 244.333,272.990 244.333 C 273.179 244.333,273.333 244.116,273.333 243.850 C 273.333 243.584,273.548 243.247,273.810 243.100 C 274.271 242.842,274.333 242.710,274.333 242.000 C 274.333 241.817,274.567 241.667,274.853 241.667 C 275.160 241.667,275.276 241.510,275.135 241.283 C 275.005 241.072,275.175 240.697,275.513 240.449 C 275.851 240.202,276.012 240.000,275.870 240.000 C 275.639 240.000,276.862 237.743,277.316 237.333 C 277.417 237.242,277.549 236.942,277.608 236.667 C 277.668 236.392,277.855 236.117,278.025 236.056 C 278.195 235.994,278.333 235.657,278.333 235.306 C 278.333 234.954,278.483 234.667,278.667 234.667 C 278.850 234.667,279.000 234.465,279.000 234.218 C 279.000 233.531,280.007 231.667,280.377 231.667 C 280.558 231.667,280.623 231.533,280.522 231.369 C 280.286 230.987,281.246 228.667,281.640 228.667 C 281.804 228.667,281.864 228.384,281.773 228.038 C 281.683 227.692,281.772 227.308,281.971 227.185 C 282.170 227.061,282.333 226.670,282.333 226.314 C 282.333 225.958,282.492 225.667,282.686 225.667 C 282.880 225.667,282.950 225.522,282.840 225.344 C 282.730 225.167,282.947 224.389,283.320 223.615 C 283.694 222.841,284.000 221.936,284.000 221.604 C 284.000 221.272,284.145 221.000,284.323 221.000 C 284.500 221.000,284.562 220.782,284.460 220.516 C 284.358 220.250,284.396 219.837,284.544 219.599 C 284.845 219.119,284.940 218.798,285.218 217.335 C 285.323 216.784,285.521 216.333,285.658 216.333 C 285.795 216.333,285.836 215.958,285.748 215.500 C 285.661 215.042,285.719 214.666,285.878 214.665 C 286.037 214.664,286.204 214.027,286.249 213.249 C 286.294 212.471,286.459 211.791,286.617 211.739 C 286.774 211.686,286.832 211.274,286.746 210.822 C 286.660 210.370,286.719 210.000,286.878 210.000 C 287.037 210.000,287.187 209.362,287.213 208.583 C 287.238 207.804,287.361 206.492,287.487 205.667 C 287.612 204.842,287.708 203.679,287.701 203.083 C 287.693 202.487,287.795 202.000,287.927 202.000 C 288.202 202.000,288.167 189.092,287.890 188.333 C 287.790 188.058,287.728 187.304,287.752 186.657 C 287.777 186.010,287.710 185.335,287.603 185.157 C 287.496 184.979,287.412 184.308,287.416 183.667 C 287.420 183.025,287.340 182.275,287.239 182.000 C 287.139 181.725,287.048 181.275,287.038 181.000 C 287.028 180.725,286.940 180.088,286.843 179.583 C 286.746 179.079,286.603 178.329,286.524 177.917 C 286.373 177.120,286.132 176.030,285.806 174.667 C 285.697 174.208,285.566 173.608,285.516 173.333 C 285.467 173.058,285.325 172.598,285.201 172.311 C 285.077 172.024,284.944 171.349,284.904 170.811 C 284.865 170.273,284.697 169.735,284.530 169.614 C 284.363 169.493,284.197 169.118,284.160 168.781 C 284.124 168.443,283.912 167.717,283.688 167.167 C 283.465 166.617,283.262 165.904,283.237 165.583 C 283.212 165.262,283.073 165.000,282.929 165.000 C 282.785 165.000,282.667 164.634,282.667 164.186 C 282.667 163.739,282.509 163.275,282.316 163.156 C 282.123 163.037,282.022 162.766,282.093 162.556 C 282.163 162.345,282.012 161.964,281.758 161.710 C 281.503 161.456,281.369 161.054,281.460 160.818 C 281.550 160.582,281.393 160.300,281.111 160.191 C 280.823 160.081,280.681 159.777,280.788 159.497 C 280.893 159.224,280.862 159.000,280.718 159.000 C 280.332 159.000,279.290 156.672,279.514 156.310 C 279.620 156.140,279.558 156.000,279.378 156.000 C 279.056 156.000,277.074 152.278,277.276 152.053 C 277.332 151.990,277.120 151.751,276.805 151.520 C 276.489 151.290,276.329 150.944,276.447 150.752 C 276.566 150.560,276.439 150.317,276.165 150.212 C 275.891 150.107,275.667 149.791,275.667 149.510 C 275.667 149.230,275.554 148.999,275.417 148.998 C 275.157 148.996,273.888 146.938,273.998 146.697 C 274.032 146.621,273.821 146.426,273.530 146.263 C 273.238 146.100,273.000 145.818,273.000 145.636 C 273.000 145.454,272.848 145.124,272.662 144.903 C 271.511 143.533,270.010 141.333,270.226 141.333 C 270.366 141.333,270.146 141.098,269.735 140.811 C 269.325 140.523,269.075 140.148,269.181 139.977 C 269.286 139.806,269.139 139.667,268.853 139.667 C 268.378 139.667,268.179 139.267,268.302 138.559 C 268.328 138.407,268.213 138.368,268.045 138.472 C 267.878 138.575,267.320 138.099,266.805 137.413 C 266.291 136.728,265.674 136.047,265.435 135.900 C 265.196 135.753,265.000 135.407,265.000 135.130 C 265.000 134.854,264.867 134.710,264.704 134.810 C 264.337 135.037,263.590 134.187,263.892 133.886 C 264.012 133.765,263.899 133.664,263.639 133.661 C 263.088 133.654,261.667 132.243,261.667 131.703 C 261.667 131.500,261.503 131.333,261.303 131.333 C 260.733 131.333,259.017 129.576,259.238 129.218 C 259.347 129.042,259.268 129.001,259.062 129.128 C 258.857 129.255,258.497 129.053,258.264 128.680 C 258.031 128.306,257.712 128.000,257.557 128.000 C 257.306 128.000,256.567 127.395,254.681 125.641 C 254.370 125.352,253.865 125.019,253.558 124.902 C 253.251 124.784,253.000 124.533,253.000 124.344 C 253.000 124.155,252.770 124.000,252.490 124.000 C 252.209 124.000,251.893 123.775,251.787 123.500 C 251.682 123.225,251.394 123.000,251.148 123.000 C 250.901 123.000,250.566 122.762,250.403 122.470 C 250.240 122.179,250.011 121.948,249.893 121.958 C 249.523 121.990,247.671 120.845,247.669 120.583 C 247.668 120.446,247.449 120.333,247.183 120.333 C 246.917 120.333,246.547 120.071,246.360 119.750 C 246.173 119.429,246.016 119.284,246.010 119.427 C 245.998 119.726,242.270 117.725,241.963 117.255 C 241.851 117.083,241.663 116.956,241.546 116.972 C 240.874 117.061,240.667 116.946,240.667 116.480 C 240.667 116.195,240.509 116.058,240.317 116.177 C 239.901 116.434,237.667 115.437,237.667 114.995 C 237.667 114.826,237.443 114.773,237.169 114.878 C 236.886 114.987,236.584 114.840,236.468 114.536 C 236.355 114.244,236.145 114.077,236.000 114.166 C 235.632 114.394,233.333 113.394,233.333 113.006 C 233.333 112.831,233.116 112.771,232.849 112.873 C 232.583 112.975,232.171 112.938,231.933 112.789 C 231.695 112.640,231.278 112.485,231.006 112.444 C 230.734 112.403,230.462 112.220,230.401 112.037 C 230.340 111.854,230.094 111.779,229.855 111.871 C 229.615 111.963,229.193 111.812,228.916 111.535 C 228.639 111.258,228.326 111.118,228.221 111.224 C 228.115 111.329,227.760 111.300,227.431 111.157 C 227.102 111.015,226.611 110.855,226.339 110.801 C 226.068 110.747,225.800 110.567,225.744 110.400 C 225.689 110.233,225.274 110.168,224.822 110.254 C 224.357 110.343,224.000 110.254,224.000 110.049 C 224.000 109.850,223.773 109.775,223.496 109.881 C 223.218 109.988,222.792 109.909,222.548 109.707 C 222.305 109.505,222.017 109.428,221.908 109.536 C 221.800 109.645,221.516 109.613,221.278 109.466 C 221.040 109.319,220.617 109.167,220.339 109.129 C 220.061 109.091,219.458 108.970,219.000 108.860 C 217.871 108.589,216.309 108.283,215.500 108.175 C 215.133 108.125,214.758 108.049,214.667 108.006 C 214.575 107.962,214.162 107.954,213.750 107.987 C 213.338 108.020,213.000 107.901,213.000 107.722 C 213.000 107.542,212.685 107.478,212.299 107.579 C 211.889 107.686,211.477 107.570,211.304 107.298 C 211.062 106.916,211.009 106.914,211.005 107.286 C 211.002 107.579,210.795 107.659,210.417 107.513 C 209.745 107.253,205.939 106.943,203.505 106.948 C 202.589 106.951,201.731 106.776,201.593 106.560 C 201.424 106.293,201.342 106.285,201.338 106.536 M205.195 108.786 C 211.545 110.380,217.361 113.119,224.885 118.060 C 230.181 121.537,231.649 122.126,236.783 122.829 C 243.900 123.804,245.162 124.373,246.655 127.280 C 249.662 133.136,237.932 141.368,227.225 140.917 C 220.197 140.621,218.235 139.917,205.266 133.040 C 203.121 131.902,200.271 130.567,198.933 130.072 L 196.500 129.174 186.667 129.170 C 176.843 129.167,176.832 129.166,175.186 128.333 C 172.718 127.085,172.275 125.375,174.110 124.173 C 175.014 123.581,186.143 121.150,189.500 120.812 C 195.735 120.184,193.016 119.790,186.242 120.340 C 176.689 121.116,172.321 123.229,166.827 129.734 C 164.118 132.941,164.267 132.860,168.972 128.563 C 172.193 125.621,172.011 125.697,172.766 126.976 C 174.190 129.386,174.759 129.500,185.333 129.500 C 194.862 129.500,199.734 130.094,200.512 131.352 C 201.508 132.964,182.936 144.375,180.162 143.855 C 177.500 143.355,177.170 142.201,179.083 140.086 C 180.060 139.005,180.241 138.682,179.667 139.045 C 170.958 144.537,168.259 145.389,166.771 143.119 C 166.245 142.316,166.268 142.258,167.696 140.803 L 169.161 139.311 166.563 140.655 C 163.625 142.175,162.079 142.351,160.438 141.350 C 158.186 139.977,158.242 139.481,160.981 136.531 L 162.500 134.895 160.500 136.396 C 156.725 139.231,154.347 139.592,153.384 137.478 C 152.616 135.792,152.914 135.121,156.294 130.924 C 171.483 112.060,188.158 104.511,205.195 108.786 M205.048 144.675 C 218.235 145.980,228.347 150.571,226.332 154.337 C 225.272 156.317,222.596 156.454,219.092 154.709 C 211.163 150.758,200.885 149.216,193.055 150.802 C 188.617 151.701,188.762 151.480,190.855 154.167 C 193.272 157.269,193.758 158.343,195.317 164.014 C 198.225 174.599,198.557 175.398,202.579 181.540 C 208.824 191.074,208.788 190.839,204.363 193.338 C 200.542 195.497,199.864 197.169,201.515 200.362 L 202.011 201.321 198.755 202.977 C 196.965 203.888,195.677 204.640,195.893 204.650 C 196.680 204.684,201.515 205.372,202.033 205.524 C 202.451 205.646,202.615 206.351,202.788 208.757 C 202.909 210.449,203.223 213.020,203.486 214.469 C 204.400 219.521,200.258 222.268,191.644 222.322 C 187.397 222.348,183.846 224.608,182.070 228.413 C 180.839 231.051,181.516 231.739,187.219 233.643 C 199.337 237.688,208.362 237.199,219.798 231.877 C 224.040 229.903,224.644 229.866,225.996 231.496 C 229.820 236.103,216.063 241.783,201.000 241.817 C 171.899 241.883,152.377 224.080,151.434 196.615 C 150.325 164.335,173.810 141.583,205.048 144.675 M235.739 160.439 C 236.898 161.135,240.480 165.879,242.382 169.239 C 253.323 188.564,251.324 209.271,237.027 224.722 L 234.662 227.278 233.414 226.939 C 230.276 226.087,230.144 224.319,232.963 220.889 C 247.335 203.403,247.286 182.803,232.832 165.890 C 229.277 161.731,231.365 157.816,235.739 160.439 M228.058 168.750 C 239.750 181.355,241.063 199.449,231.328 213.833 C 227.704 219.187,225.875 220.307,223.717 218.491 C 221.857 216.926,221.981 215.981,224.389 213.371 C 234.734 202.159,235.126 186.158,225.343 174.491 C 222.581 171.198,222.417 170.198,224.325 168.291 C 225.648 166.968,226.502 167.073,228.058 168.750 M220.100 176.923 C 225.120 181.694,227.942 190.638,226.541 197.333 C 225.562 202.012,220.262 210.882,218.209 211.278 C 214.793 211.936,214.038 208.971,216.720 205.434 C 222.515 197.796,222.480 189.181,216.624 181.444 C 214.877 179.135,214.819 178.953,215.351 177.426 C 216.026 175.489,218.335 175.245,220.100 176.923 M221.059 245.720 C 222.792 246.382,222.417 248.038,220.097 249.960 C 219.402 250.536,220.683 249.870,222.944 248.480 C 228.388 245.132,231.187 244.301,232.926 245.519 C 234.071 246.321,233.820 247.146,231.917 248.831 L 230.167 250.381 232.308 249.140 C 236.393 246.774,239.100 246.584,240.649 248.553 C 241.641 249.814,241.550 250.075,239.250 252.557 L 237.167 254.806 239.167 253.187 C 246.067 247.602,249.934 250.776,244.484 257.551 C 222.833 284.470,201.424 288.698,174.957 271.283 C 169.288 267.553,168.529 267.272,161.176 266.181 L 155.852 265.391 154.451 263.908 C 150.476 259.701,152.793 254.942,160.703 251.067 C 170.481 246.278,178.283 247.119,191.151 254.347 C 201.001 259.880,208.660 261.556,217.000 260.005 C 217.943 259.830,216.704 259.792,213.667 259.903 C 207.639 260.123,199.333 258.854,199.333 257.711 C 199.333 256.572,212.600 247.575,216.847 245.835 C 218.791 245.038,219.245 245.026,221.059 245.720 M231.848 259.996 L 228.195 263.318 227.232 262.149 C 225.807 260.420,224.098 259.684,221.089 259.504 C 218.331 259.338,218.430 259.377,223.254 260.359 C 226.755 261.072,228.192 263.682,225.833 265.046 C 224.605 265.756,217.280 267.457,211.667 268.337 L 207.500 268.989 212.500 268.853 C 222.485 268.582,227.481 266.369,233.127 259.713 C 234.549 258.037,235.664 256.668,235.606 256.670 C 235.548 256.672,233.856 258.169,231.848 259.996 " stroke="none" fill="#F9F3F3" fill-rule="evenodd"></path><path id="path2" d="M190.316 145.340 C 142.349 153.794,137.223 226.618,183.701 239.316 C 199.880 243.735,218.395 241.938,225.029 235.304 C 228.105 232.228,225.425 229.268,221.403 231.298 C 210.638 236.732,203.523 237.656,192.000 235.115 C 184.563 233.475,181.128 231.729,181.449 229.753 C 182.128 225.565,186.139 222.590,191.638 222.194 C 201.657 221.472,204.184 219.638,203.231 213.778 C 202.938 211.975,202.597 209.424,202.475 208.109 C 202.218 205.355,202.426 205.495,198.083 205.133 C 194.651 204.847,194.656 204.820,198.488 202.917 L 201.643 201.350 201.155 199.966 C 200.031 196.780,200.761 194.969,203.783 193.446 C 208.642 190.999,208.664 191.215,202.558 181.833 C 198.571 175.709,197.609 173.369,194.949 163.333 C 193.808 159.027,192.673 156.649,190.490 153.988 C 188.635 151.727,188.668 151.644,191.694 150.876 C 199.700 148.846,212.938 150.779,220.145 155.031 C 222.636 156.501,226.021 155.664,226.276 153.514 C 226.945 147.865,204.691 142.807,190.316 145.340 M231.725 160.771 C 230.530 162.043,230.772 163.324,232.583 165.316 C 247.522 181.746,247.659 202.835,232.945 221.270 C 230.410 224.446,230.483 225.781,233.243 226.692 L 234.484 227.101 236.940 224.467 C 251.776 208.559,253.253 186.288,240.750 167.000 C 236.510 160.458,233.785 158.578,231.725 160.771 M224.222 168.750 C 222.810 170.636,222.788 171.250,224.086 172.618 C 235.267 184.399,235.306 203.067,224.173 213.994 C 222.432 215.702,222.301 216.514,223.530 217.974 C 225.555 220.382,227.603 219.125,231.619 213.008 C 240.347 199.713,239.669 184.446,229.765 171.288 C 226.688 167.201,225.717 166.756,224.222 168.750 M216.000 176.667 C 214.989 177.677,215.160 179.101,216.504 180.861 C 222.727 189.014,222.792 197.599,216.694 205.833 C 212.979 210.850,216.855 213.474,220.740 208.573 C 228.307 199.024,228.726 188.627,221.912 179.500 C 219.126 175.768,217.620 175.047,216.000 176.667 " stroke="none" fill="#fa2af0" fill-rule="evenodd"></path><path id="path3" d="M187.925 128.911 C 188.709 128.982,189.909 128.981,190.592 128.909 C 191.275 128.837,190.633 128.780,189.167 128.781 C 187.700 128.782,187.141 128.841,187.925 128.911 M178.583 129.902 C 178.996 129.981,179.671 129.981,180.083 129.902 C 180.496 129.822,180.158 129.757,179.333 129.757 C 178.508 129.757,178.171 129.822,178.583 129.902 M165.817 130.973 C 165.921 131.142,165.492 131.704,164.865 132.223 C 164.237 132.742,163.386 133.617,162.974 134.167 C 162.562 134.717,163.142 134.278,164.263 133.193 C 165.999 131.512,166.511 130.667,165.794 130.667 C 165.702 130.667,165.713 130.805,165.817 130.973 M197.762 144.580 C 198.823 144.646,200.473 144.646,201.429 144.579 C 202.385 144.512,201.517 144.457,199.500 144.458 C 197.483 144.459,196.701 144.514,197.762 144.580 M198.261 150.246 C 199.230 150.314,200.730 150.313,201.595 150.245 C 202.459 150.176,201.667 150.121,199.833 150.122 C 198.000 150.123,197.293 150.179,198.261 150.246 M225.021 151.192 C 225.651 151.940,226.234 152.497,226.317 152.431 C 226.399 152.365,225.884 151.754,225.171 151.072 L 223.875 149.833 225.021 151.192 M165.826 157.750 L 163.167 160.500 165.917 157.841 C 167.429 156.379,168.667 155.141,168.667 155.091 C 168.667 154.848,168.295 155.196,165.826 157.750 M240.197 166.083 C 240.874 167.137,241.490 168.000,241.566 168.000 C 241.789 168.000,240.583 166.068,239.742 165.078 C 239.316 164.577,239.521 165.029,240.197 166.083 M226.105 167.672 C 226.621 167.827,227.228 168.077,227.454 168.227 C 227.680 168.377,227.579 168.237,227.229 167.917 C 226.879 167.596,226.272 167.346,225.880 167.362 C 225.301 167.385,225.344 167.444,226.105 167.672 M224.269 168.250 C 223.682 168.934,223.241 169.667,223.418 169.667 C 223.486 169.667,223.874 169.217,224.281 168.667 C 225.084 167.580,225.077 167.310,224.269 168.250 M229.501 170.917 C 230.384 172.063,231.167 173.000,231.241 173.000 C 231.475 173.000,229.249 170.027,228.559 169.418 C 228.194 169.097,228.618 169.771,229.501 170.917 M223.333 172.104 C 223.333 172.162,223.821 172.649,224.417 173.188 L 225.500 174.167 224.521 173.083 C 223.608 172.074,223.333 171.847,223.333 172.104 M233.898 177.829 C 234.203 178.469,234.512 178.932,234.584 178.860 C 234.737 178.708,233.725 176.667,233.497 176.667 C 233.413 176.667,233.594 177.190,233.898 177.829 M215.058 178.667 C 215.037 179.187,215.477 180.001,216.228 180.833 C 217.373 182.103,217.160 181.568,215.962 180.167 C 215.648 179.800,215.324 179.125,215.241 178.667 L 215.091 177.833 215.058 178.667 M249.077 190.000 C 249.077 190.642,249.146 190.904,249.230 190.583 C 249.314 190.262,249.314 189.737,249.230 189.417 C 249.146 189.096,249.077 189.358,249.077 190.000 M243.790 193.000 C 243.790 194.925,243.845 195.713,243.912 194.750 C 243.980 193.787,243.980 192.213,243.912 191.250 C 243.845 190.287,243.790 191.075,243.790 193.000 M226.744 191.333 C 226.744 191.975,226.813 192.237,226.896 191.917 C 226.980 191.596,226.980 191.071,226.896 190.750 C 226.813 190.429,226.744 190.692,226.744 191.333 M237.787 193.333 C 237.787 195.075,237.843 195.787,237.912 194.917 C 237.980 194.046,237.980 192.621,237.912 191.750 C 237.843 190.879,237.787 191.592,237.787 193.333 M221.100 193.667 C 221.100 194.675,221.162 195.088,221.239 194.583 C 221.315 194.079,221.315 193.254,221.239 192.750 C 221.162 192.246,221.100 192.658,221.100 193.667 M232.411 195.667 C 232.411 196.308,232.479 196.571,232.563 196.250 C 232.647 195.929,232.647 195.404,232.563 195.083 C 232.479 194.762,232.411 195.025,232.411 195.667 M151.411 199.000 C 151.411 199.642,151.479 199.904,151.563 199.583 C 151.647 199.262,151.647 198.737,151.563 198.417 C 151.479 198.096,151.411 198.358,151.411 199.000 M195.333 204.724 C 195.333 204.876,195.783 205.000,196.333 205.000 C 196.883 205.000,197.333 204.942,197.333 204.871 C 197.333 204.800,196.883 204.676,196.333 204.596 C 195.783 204.515,195.333 204.573,195.333 204.724 M202.424 207.000 C 202.424 207.825,202.489 208.162,202.569 207.750 C 202.648 207.338,202.648 206.662,202.569 206.250 C 202.489 205.838,202.424 206.175,202.424 207.000 M221.479 207.557 C 220.966 208.230,220.716 208.676,220.924 208.547 C 221.351 208.283,222.794 206.333,222.562 206.333 C 222.480 206.333,221.992 206.884,221.479 207.557 M217.083 211.230 C 217.404 211.314,217.929 211.314,218.250 211.230 C 218.571 211.146,218.308 211.077,217.667 211.077 C 217.025 211.077,216.762 211.146,217.083 211.230 M224.392 213.343 C 223.010 214.861,222.336 215.862,222.436 216.246 C 222.564 216.734,222.596 216.718,222.628 216.151 C 222.649 215.776,223.279 214.876,224.028 214.151 C 225.242 212.976,226.884 210.978,226.606 211.014 C 226.548 211.021,225.551 212.070,224.392 213.343 M244.734 213.174 C 244.335 213.995,244.079 214.667,244.164 214.667 C 244.390 214.667,245.737 211.959,245.586 211.808 C 245.516 211.738,245.133 212.353,244.734 213.174 M222.667 217.220 C 222.667 217.402,223.079 217.914,223.583 218.359 L 224.500 219.167 223.667 218.167 C 223.208 217.617,222.796 217.104,222.750 217.028 C 222.704 216.951,222.667 217.038,222.667 217.220 M225.083 219.230 C 225.404 219.314,225.929 219.314,226.250 219.230 C 226.571 219.146,226.308 219.077,225.667 219.077 C 225.025 219.077,224.762 219.146,225.083 219.230 M235.989 225.583 L 234.167 227.500 236.083 225.678 C 237.864 223.985,238.153 223.667,237.905 223.667 C 237.853 223.667,236.991 224.529,235.989 225.583 M231.000 225.294 C 231.000 225.619,232.296 226.831,232.436 226.637 C 232.490 226.562,232.189 226.168,231.767 225.762 C 231.345 225.356,231.000 225.145,231.000 225.294 M161.667 225.438 C 161.667 225.495,162.154 225.983,162.750 226.521 L 163.833 227.500 162.854 226.417 C 161.942 225.407,161.667 225.180,161.667 225.438 M219.000 232.167 C 218.542 232.429,218.317 232.643,218.500 232.643 C 218.683 232.643,219.208 232.429,219.667 232.167 C 220.125 231.905,220.350 231.690,220.167 231.690 C 219.983 231.690,219.458 231.905,219.000 232.167 M202.421 236.573 C 202.928 236.649,203.678 236.647,204.088 236.568 C 204.498 236.489,204.083 236.426,203.167 236.429 C 202.250 236.431,201.915 236.496,202.421 236.573 M220.719 249.111 C 220.158 249.708,220.106 249.889,220.494 249.889 C 220.772 249.889,220.925 249.814,220.833 249.721 C 220.741 249.629,220.914 249.279,221.218 248.944 C 222.030 248.047,221.576 248.199,220.719 249.111 M235.373 256.460 C 234.287 257.560,233.743 258.341,233.967 258.480 C 234.310 258.692,234.461 258.486,234.375 257.925 C 234.355 257.792,234.790 257.349,235.341 256.941 C 236.190 256.314,237.569 254.667,237.246 254.667 C 237.190 254.667,236.347 255.474,235.373 256.460 M236.823 266.083 L 234.833 268.167 236.917 266.177 C 238.063 265.083,239.000 264.145,239.000 264.094 C 239.000 263.847,238.671 264.148,236.823 266.083 M206.736 269.060 C 206.423 269.185,207.517 269.277,209.167 269.265 C 212.242 269.242,212.201 269.100,209.070 268.930 C 208.099 268.877,207.049 268.935,206.736 269.060 " stroke="none" fill="#F7D9D9" fill-rule="evenodd"></path><path id="path4" d="M193.417 107.896 C 193.737 107.980,194.262 107.980,194.583 107.896 C 194.904 107.813,194.642 107.744,194.000 107.744 C 193.358 107.744,193.096 107.813,193.417 107.896 M209.583 259.908 C 210.179 259.982,211.154 259.982,211.750 259.908 C 212.346 259.834,211.858 259.773,210.667 259.773 C 209.475 259.773,208.987 259.834,209.583 259.908 M208.421 260.573 C 208.928 260.649,209.678 260.647,210.088 260.568 C 210.498 260.489,210.083 260.426,209.167 260.429 C 208.250 260.431,207.915 260.496,208.421 260.573 M212.088 260.573 C 212.595 260.649,213.345 260.647,213.755 260.568 C 214.165 260.489,213.750 260.426,212.833 260.429 C 211.917 260.431,211.581 260.496,212.088 260.573 " stroke="none" fill="#F7D9D9" fill-rule="evenodd"></path></g></svg>