<svg id="svg" version="1.1" xmlns="http://www.w3.org/2000/svg" xmlns:xlink="http://www.w3.org/1999/xlink" width="400" height="400" viewBox="0, 0, 400,400"><g id="svgg"><path id="path0" d="M196.667 137.708 C 159.875 141.942,135.900 177.309,143.708 215.833 C 149.087 242.373,167.089 258.170,197.500 263.036 C 217.386 266.218,246.888 256.050,237.826 249.138 C 236.304 247.978,236.038 248.044,229.167 251.276 C 221.122 255.060,214.468 256.572,207.384 256.228 C 195.213 255.637,180.933 251.232,181.271 248.172 C 181.856 242.870,187.526 238.502,194.510 237.974 C 207.805 236.967,210.934 234.725,209.631 227.140 C 209.256 224.955,208.848 221.677,208.724 219.856 C 208.461 215.973,208.918 216.305,202.936 215.645 L 199.210 215.233 203.438 213.114 C 205.764 211.949,207.667 210.937,207.667 210.867 C 207.667 210.797,207.370 210.086,207.007 209.286 C 205.263 205.441,206.204 203.051,210.341 200.819 C 216.659 197.409,216.678 197.605,208.903 185.771 C 203.199 177.088,202.969 176.528,198.663 160.833 C 197.141 155.284,196.108 153.178,193.030 149.345 C 191.931 147.977,191.089 146.800,191.159 146.730 C 192.293 145.596,201.525 144.525,207.934 144.784 C 216.611 145.135,222.182 146.559,229.882 150.397 C 238.719 154.801,243.671 148.989,235.360 143.965 C 227.230 139.050,209.673 136.211,196.667 137.708 M246.429 157.973 C 244.582 159.717,244.727 161.557,246.894 163.872 C 260.547 178.460,265.278 197.501,259.648 215.194 C 257.206 222.867,251.625 232.622,246.768 237.707 C 244.368 240.220,245.207 243.130,248.579 243.990 L 250.167 244.395 252.449 241.948 C 270.061 223.056,273.949 199.481,263.368 175.741 C 257.469 162.508,249.963 154.634,246.429 157.973 M237.471 167.630 C 236.508 168.217,235.000 170.749,235.000 171.778 C 235.000 172.026,235.743 173.078,236.650 174.116 C 248.730 187.920,250.779 204.347,242.274 219.211 C 240.304 222.654,236.882 227.158,235.322 228.361 C 233.174 230.017,235.033 233.608,238.196 233.911 L 239.853 234.071 242.130 231.656 C 257.740 215.109,258.283 190.229,243.451 171.109 C 240.199 166.918,239.401 166.453,237.471 167.630 M226.410 178.223 C 224.473 179.002,224.594 182.160,226.660 184.723 C 234.520 194.477,234.602 206.148,226.882 216.459 C 224.267 219.952,224.040 221.092,225.641 222.692 C 227.433 224.484,229.213 224.140,231.344 221.590 C 242.541 208.190,243.064 194.503,232.884 181.232 C 230.443 178.050,228.771 177.273,226.410 178.223 " stroke="none" fill="#f23af2" fill-rule="evenodd"></path><path id="path1" d="M0.000 200.000 L 0.000 400.000 200.000 400.000 L 400.000 400.000 400.000 200.000 L 400.000 0.000 200.000 0.000 L 0.000 0.000 0.000 200.000 M203.833 88.333 C 203.947 88.517,203.730 88.667,203.353 88.667 C 202.976 88.667,202.667 88.517,202.667 88.333 C 202.667 88.150,202.883 88.000,203.147 88.000 C 203.411 88.000,203.720 88.150,203.833 88.333 M206.667 88.333 C 206.667 88.517,206.142 88.667,205.500 88.667 C 204.858 88.667,204.333 88.517,204.333 88.333 C 204.333 88.150,204.858 88.000,205.500 88.000 C 206.142 88.000,206.667 88.150,206.667 88.333 M208.333 88.333 C 208.333 88.517,208.033 88.667,207.667 88.667 C 207.300 88.667,207.000 88.517,207.000 88.333 C 207.000 88.150,207.300 88.000,207.667 88.000 C 208.033 88.000,208.333 88.150,208.333 88.333 M209.667 88.333 C 210.071 88.595,210.023 88.657,209.417 88.662 C 209.004 88.664,208.667 88.517,208.667 88.333 C 208.667 87.916,209.020 87.916,209.667 88.333 M197.333 88.667 C 197.333 88.850,197.024 89.000,196.647 89.000 C 196.270 89.000,196.053 88.850,196.167 88.667 C 196.280 88.483,196.589 88.333,196.853 88.333 C 197.117 88.333,197.333 88.483,197.333 88.667 M214.667 88.667 C 214.667 88.850,214.442 89.000,214.167 89.000 C 213.892 89.000,213.667 88.850,213.667 88.667 C 213.667 88.483,213.892 88.333,214.167 88.333 C 214.442 88.333,214.667 88.483,214.667 88.667 M194.167 89.000 C 194.053 89.183,193.745 89.333,193.480 89.333 C 193.216 89.333,193.000 89.183,193.000 89.000 C 193.000 88.817,193.309 88.667,193.686 88.667 C 194.064 88.667,194.280 88.817,194.167 89.000 M218.000 89.000 C 218.000 89.183,217.784 89.333,217.520 89.333 C 217.255 89.333,216.947 89.183,216.833 89.000 C 216.720 88.817,216.936 88.667,217.314 88.667 C 217.691 88.667,218.000 88.817,218.000 89.000 M191.000 89.333 C 191.000 89.517,190.691 89.667,190.314 89.667 C 189.936 89.667,189.720 89.517,189.833 89.333 C 189.947 89.150,190.255 89.000,190.520 89.000 C 190.784 89.000,191.000 89.150,191.000 89.333 M221.167 89.333 C 221.280 89.517,221.064 89.667,220.686 89.667 C 220.309 89.667,220.000 89.517,220.000 89.333 C 220.000 89.150,220.216 89.000,220.480 89.000 C 220.745 89.000,221.053 89.150,221.167 89.333 M189.000 89.667 C 188.354 90.084,188.000 90.084,188.000 89.667 C 188.000 89.483,188.338 89.336,188.750 89.338 C 189.356 89.343,189.404 89.405,189.000 89.667 M209.500 90.666 C 218.065 92.365,227.433 96.579,237.614 103.311 C 244.761 108.038,246.210 108.580,254.622 109.685 C 262.290 110.692,263.647 111.353,265.530 115.000 C 269.491 122.670,253.846 133.584,240.200 132.669 C 231.285 132.071,227.192 130.655,215.445 124.102 C 203.511 117.445,197.531 116.141,184.430 117.340 C 174.136 118.281,166.911 114.834,171.694 111.263 C 172.963 110.315,184.712 107.716,191.823 106.809 C 198.437 105.966,198.327 105.629,191.500 105.815 C 176.019 106.238,170.239 108.844,161.186 119.485 C 153.069 129.026,147.207 132.278,145.183 128.364 C 144.139 126.347,144.441 125.449,147.481 121.534 C 166.659 96.835,187.729 86.348,209.500 90.666 M225.667 90.000 C 226.071 90.261,226.023 90.324,225.417 90.328 C 225.004 90.331,224.667 90.183,224.667 90.000 C 224.667 89.582,225.020 89.582,225.667 90.000 M184.667 90.333 C 184.667 90.517,184.358 90.667,183.980 90.667 C 183.603 90.667,183.387 90.517,183.500 90.333 C 183.613 90.150,183.922 90.000,184.186 90.000 C 184.451 90.000,184.667 90.150,184.667 90.333 M227.500 90.333 C 227.613 90.517,227.397 90.667,227.020 90.667 C 226.642 90.667,226.333 90.517,226.333 90.333 C 226.333 90.150,226.549 90.000,226.814 90.000 C 227.078 90.000,227.387 90.150,227.500 90.333 M183.000 90.667 C 183.000 90.850,182.691 91.000,182.314 91.000 C 181.936 91.000,181.720 90.850,181.833 90.667 C 181.947 90.483,182.255 90.333,182.520 90.333 C 182.784 90.333,183.000 90.483,183.000 90.667 M229.167 90.667 C 229.280 90.850,229.064 91.000,228.686 91.000 C 228.309 91.000,228.000 90.850,228.000 90.667 C 228.000 90.483,228.216 90.333,228.480 90.333 C 228.745 90.333,229.053 90.483,229.167 90.667 M181.333 91.000 C 181.333 91.183,180.996 91.331,180.583 91.328 C 179.977 91.324,179.929 91.261,180.333 91.000 C 180.980 90.582,181.333 90.582,181.333 91.000 M232.167 91.333 C 232.280 91.517,232.148 91.667,231.873 91.667 C 231.598 91.667,231.280 91.517,231.167 91.333 C 231.053 91.150,231.186 91.000,231.461 91.000 C 231.736 91.000,232.053 91.150,232.167 91.333 M233.667 91.667 C 234.071 91.928,234.023 91.991,233.417 91.995 C 233.004 91.998,232.667 91.850,232.667 91.667 C 232.667 91.249,233.020 91.249,233.667 91.667 M237.000 92.667 C 237.000 93.084,236.646 93.084,236.000 92.667 C 235.596 92.405,235.644 92.343,236.250 92.338 C 236.662 92.336,237.000 92.483,237.000 92.667 M171.667 93.667 C 171.020 94.084,170.667 94.084,170.667 93.667 C 170.667 93.483,171.004 93.336,171.417 93.338 C 172.023 93.343,172.071 93.405,171.667 93.667 M241.500 94.000 C 241.613 94.183,241.481 94.333,241.206 94.333 C 240.931 94.333,240.613 94.183,240.500 94.000 C 240.387 93.817,240.519 93.667,240.794 93.667 C 241.069 93.667,241.387 93.817,241.500 94.000 M168.667 94.667 C 168.020 95.084,167.667 95.084,167.667 94.667 C 167.667 94.483,168.004 94.336,168.417 94.338 C 169.023 94.343,169.071 94.405,168.667 94.667 M243.333 94.667 C 243.333 95.084,242.980 95.084,242.333 94.667 C 241.929 94.405,241.977 94.343,242.583 94.338 C 242.996 94.336,243.333 94.483,243.333 94.667 M167.333 94.918 C 167.333 95.193,164.918 96.029,164.714 95.825 C 164.592 95.703,166.592 94.747,167.083 94.694 C 167.221 94.679,167.333 94.780,167.333 94.918 M248.806 96.536 C 249.571 96.829,249.454 97.302,248.667 97.097 C 248.300 97.001,248.000 96.790,248.000 96.628 C 248.000 96.279,248.106 96.267,248.806 96.536 M161.333 97.333 C 161.333 97.517,161.183 97.685,161.000 97.708 C 160.362 97.788,160.162 97.859,159.417 98.274 C 159.004 98.503,158.667 98.562,158.667 98.406 C 158.667 98.139,160.536 97.068,161.083 97.021 C 161.221 97.010,161.333 97.150,161.333 97.333 M250.590 97.604 C 250.672 97.848,250.519 97.922,250.195 97.798 C 249.904 97.686,249.667 97.449,249.667 97.270 C 249.667 96.832,250.424 97.106,250.590 97.604 M158.333 98.631 C 158.333 98.795,158.108 99.015,157.833 99.121 C 157.325 99.316,157.151 98.960,157.556 98.556 C 157.874 98.237,158.333 98.282,158.333 98.631 M253.590 98.938 C 253.672 99.181,253.519 99.256,253.195 99.131 C 252.904 99.020,252.667 98.782,252.667 98.603 C 252.667 98.165,253.424 98.439,253.590 98.938 M156.524 99.507 C 156.171 99.774,155.800 99.912,155.701 99.812 C 155.491 99.603,156.338 99.008,156.833 99.016 C 157.017 99.019,156.878 99.240,156.524 99.507 M254.806 99.202 C 255.571 99.496,255.454 99.969,254.667 99.763 C 254.300 99.667,254.000 99.456,254.000 99.294 C 254.000 98.946,254.106 98.934,254.806 99.202 M152.667 101.476 C 152.667 101.684,150.627 102.667,150.199 102.665 C 149.715 102.663,151.713 101.389,152.250 101.358 C 152.479 101.344,152.667 101.397,152.667 101.476 M259.500 101.667 C 259.613 101.850,259.481 102.000,259.206 102.000 C 258.931 102.000,258.613 101.850,258.500 101.667 C 258.387 101.483,258.519 101.333,258.794 101.333 C 259.069 101.333,259.387 101.483,259.500 101.667 M147.000 104.631 C 147.000 104.795,146.775 105.015,146.500 105.121 C 145.992 105.316,145.817 104.960,146.222 104.556 C 146.541 104.237,147.000 104.282,147.000 104.631 M265.532 105.167 C 266.207 105.625,266.601 106.000,266.407 106.000 C 265.903 106.000,264.005 104.882,264.002 104.583 C 263.999 104.191,264.218 104.275,265.532 105.167 M145.500 105.667 C 145.387 105.850,145.090 106.000,144.841 106.000 C 144.593 106.000,144.339 106.115,144.278 106.256 C 144.082 106.708,140.649 108.760,140.440 108.551 C 140.329 108.440,140.522 108.244,140.869 108.115 C 141.216 107.987,141.575 107.790,141.667 107.679 C 142.404 106.779,145.969 104.908,145.500 105.667 M270.590 108.604 C 270.672 108.848,270.519 108.922,270.195 108.798 C 269.904 108.686,269.667 108.449,269.667 108.270 C 269.667 107.832,270.424 108.106,270.590 108.604 M139.793 109.434 C 139.448 109.622,138.283 110.451,137.204 111.276 C 136.124 112.102,135.299 112.612,135.371 112.411 C 135.576 111.831,139.802 108.729,140.126 108.920 C 140.287 109.015,140.137 109.246,139.793 109.434 M277.000 113.394 C 277.000 113.532,276.775 113.559,276.500 113.454 C 276.225 113.348,275.999 113.166,275.998 113.048 C 275.996 112.930,275.471 112.476,274.831 112.040 C 274.191 111.604,273.667 111.114,273.667 110.951 C 273.667 110.787,274.417 111.214,275.333 111.898 C 276.250 112.582,277.000 113.256,277.000 113.394 M135.000 112.964 C 135.000 113.128,134.775 113.348,134.500 113.454 C 133.992 113.649,133.817 113.294,134.222 112.889 C 134.541 112.570,135.000 112.615,135.000 112.964 M132.999 114.663 C 132.541 114.998,131.805 115.587,131.363 115.971 C 130.921 116.356,130.486 116.597,130.396 116.507 C 130.305 116.417,130.592 116.056,131.032 115.706 C 131.473 115.356,132.195 114.753,132.637 114.366 C 133.079 113.979,133.528 113.751,133.636 113.858 C 133.744 113.966,133.457 114.328,132.999 114.663 M170.415 115.181 C 173.169 118.309,175.129 118.672,185.599 117.994 C 194.186 117.437,201.673 118.252,205.263 120.132 L 206.061 120.550 204.280 122.155 C 197.213 128.525,182.894 136.989,180.009 136.502 C 174.803 135.622,175.885 132.730,183.250 127.840 C 184.579 126.958,185.667 126.165,185.667 126.079 C 185.667 125.994,185.254 126.197,184.750 126.530 C 171.024 135.621,166.060 137.882,163.194 136.348 C 161.127 135.242,161.804 133.805,165.833 130.745 C 169.248 128.151,169.197 128.089,165.500 130.344 C 159.559 133.968,156.946 134.666,154.327 133.330 C 152.223 132.257,151.730 130.925,152.869 129.392 C 154.831 126.754,168.177 113.667,168.906 113.667 C 169.003 113.667,169.682 114.348,170.415 115.181 M278.333 114.397 C 278.333 114.835,277.576 114.561,277.410 114.062 C 277.328 113.819,277.481 113.744,277.805 113.869 C 278.096 113.980,278.333 114.218,278.333 114.397 M280.833 116.333 C 280.947 116.517,280.814 116.667,280.539 116.667 C 280.264 116.667,279.947 116.517,279.833 116.333 C 279.720 116.150,279.852 116.000,280.127 116.000 C 280.402 116.000,280.720 116.150,280.833 116.333 M284.333 119.729 C 284.333 120.212,283.850 120.006,283.083 119.197 C 282.027 118.083,282.152 117.846,283.333 118.719 C 283.883 119.126,284.333 119.580,284.333 119.729 M127.667 119.298 C 127.667 119.461,127.442 119.682,127.167 119.787 C 126.659 119.982,126.484 119.627,126.889 119.222 C 127.207 118.904,127.667 118.948,127.667 119.298 M285.962 121.183 C 286.399 121.644,286.688 122.090,286.604 122.174 C 286.520 122.258,286.022 121.878,285.497 121.330 C 284.972 120.782,284.683 120.336,284.854 120.339 C 285.026 120.342,285.524 120.722,285.962 121.183 M124.503 122.330 C 123.978 122.878,123.480 123.258,123.396 123.174 C 123.194 122.972,124.744 121.346,125.146 121.339 C 125.317 121.336,125.028 121.782,124.503 122.330 M189.333 123.697 C 187.775 124.629,186.350 125.556,186.167 125.757 C 185.983 125.958,186.208 125.895,186.667 125.617 C 187.125 125.339,188.588 124.470,189.917 123.685 C 191.986 122.462,192.630 121.998,192.250 122.001 C 192.204 122.001,190.892 122.764,189.333 123.697 M122.791 124.069 C 122.314 124.840,121.517 125.667,121.249 125.667 C 121.101 125.667,121.313 125.217,121.719 124.667 C 122.421 123.717,123.317 123.218,122.791 124.069 M288.938 124.313 C 289.021 124.563,288.896 124.688,288.646 124.604 C 288.405 124.524,288.143 124.261,288.063 124.021 C 287.979 123.771,288.104 123.646,288.354 123.729 C 288.595 123.809,288.857 124.072,288.938 124.313 M293.108 129.014 C 293.809 129.923,294.249 130.667,294.087 130.667 C 293.925 130.667,293.437 130.179,293.004 129.583 C 292.571 128.987,292.017 128.380,291.775 128.233 C 291.303 127.948,291.168 127.324,291.583 127.348 C 291.721 127.355,292.407 128.105,293.108 129.014 M117.590 130.063 C 117.518 130.280,117.280 130.518,117.062 130.590 C 116.819 130.672,116.744 130.519,116.869 130.195 C 117.101 129.589,117.790 129.463,117.590 130.063 M116.667 131.116 C 116.667 131.179,116.351 131.592,115.966 132.032 C 115.581 132.473,114.805 133.471,114.243 134.250 C 113.680 135.029,113.094 135.667,112.939 135.667 C 112.784 135.667,113.443 134.617,114.403 133.333 C 115.879 131.361,116.667 130.590,116.667 131.116 M295.257 131.604 C 295.457 132.204,294.768 132.078,294.535 131.472 C 294.411 131.148,294.485 130.995,294.729 131.076 C 294.947 131.149,295.184 131.386,295.257 131.604 M298.458 135.861 C 299.326 137.069,299.971 138.231,299.891 138.445 C 299.807 138.667,299.628 138.548,299.472 138.167 C 299.323 137.800,299.078 137.350,298.929 137.167 C 297.634 135.578,296.357 133.667,296.591 133.667 C 296.749 133.667,297.590 134.654,298.458 135.861 M216.500 138.025 C 229.992 139.962,239.667 144.496,239.667 148.882 C 239.667 152.063,235.376 153.338,231.464 151.320 C 219.448 145.123,204.476 143.141,193.357 146.276 L 191.263 146.867 193.117 149.179 C 194.137 150.451,195.508 152.394,196.163 153.496 C 197.378 155.539,197.594 156.174,199.977 164.717 C 203.328 176.729,203.542 177.231,208.555 184.886 C 216.898 197.623,216.885 197.515,210.500 200.932 C 206.172 203.247,205.423 205.258,207.303 209.509 L 207.971 211.018 204.152 212.919 C 200.036 214.968,199.649 215.332,201.583 215.336 C 202.271 215.337,203.808 215.489,205.000 215.672 C 208.895 216.273,208.504 215.816,208.938 220.259 C 209.151 222.426,209.625 225.918,209.992 228.017 C 210.753 232.369,210.759 232.430,210.404 232.210 C 210.260 232.121,209.951 232.479,209.718 233.006 C 208.500 235.757,200.265 238.333,192.692 238.333 C 188.297 238.333,183.040 242.617,181.621 247.355 C 181.012 249.388,183.112 250.842,189.667 252.927 C 204.743 257.722,216.323 257.054,230.297 250.583 L 236.094 247.899 237.243 248.518 C 240.566 250.307,240.434 253.444,236.928 256.034 C 227.929 262.680,207.231 265.602,192.500 262.306 C 190.850 261.937,188.450 261.398,187.167 261.108 C 154.102 253.649,135.488 220.516,144.221 184.667 C 152.323 151.410,180.969 132.925,216.500 138.025 M110.547 139.597 C 109.919 140.530,109.322 141.211,109.220 141.109 C 109.060 140.949,110.151 139.138,110.691 138.667 C 110.796 138.575,111.001 138.200,111.146 137.833 C 111.292 137.467,111.473 137.332,111.550 137.533 C 111.626 137.735,111.175 138.664,110.547 139.597 M302.667 142.425 C 302.667 142.580,302.517 142.613,302.333 142.500 C 302.150 142.387,302.000 142.090,302.000 141.841 C 302.000 141.593,301.887 141.339,301.750 141.278 C 301.292 141.074,300.033 139.078,300.235 138.877 C 300.439 138.672,302.667 141.922,302.667 142.425 M108.478 142.831 C 108.132 143.474,107.720 144.000,107.563 144.000 C 107.235 144.000,107.280 143.884,108.169 142.438 C 109.034 141.030,109.279 141.343,108.478 142.831 M305.131 146.195 C 305.256 146.519,305.181 146.672,304.938 146.590 C 304.439 146.424,304.165 145.667,304.603 145.667 C 304.782 145.667,305.020 145.904,305.131 146.195 M105.287 148.348 C 104.900 149.089,104.504 149.615,104.405 149.516 C 104.181 149.292,105.394 147.000,105.737 147.000 C 105.876 147.000,105.673 147.606,105.287 148.348 M306.576 149.439 C 306.508 149.642,306.201 149.303,305.893 148.686 C 305.109 147.115,305.196 146.604,306.017 147.951 C 306.392 148.566,306.644 149.236,306.576 149.439 M102.529 153.915 C 102.171 154.273,101.981 153.771,102.232 153.131 C 102.468 152.530,102.486 152.529,102.603 153.109 C 102.670 153.445,102.637 153.807,102.529 153.915 M308.846 153.932 C 308.552 154.225,307.996 153.276,308.235 152.890 C 308.340 152.720,308.569 152.837,308.743 153.149 C 308.918 153.461,308.964 153.814,308.846 153.932 M102.121 154.833 C 101.918 155.362,101.333 155.527,101.333 155.056 C 101.333 154.703,101.698 154.333,102.045 154.333 C 102.192 154.333,102.226 154.558,102.121 154.833 M250.396 157.345 C 254.283 158.425,262.633 171.688,266.136 182.348 C 272.413 201.446,269.440 220.317,257.685 235.986 C 252.139 243.379,250.117 244.948,247.533 243.869 C 244.547 242.621,244.532 240.225,247.487 236.682 C 260.579 220.986,265.011 201.921,259.472 185.132 C 257.098 177.935,249.819 166.206,245.558 162.709 C 244.412 161.769,245.121 158.653,246.739 157.520 C 247.601 156.917,248.669 156.866,250.396 157.345 M100.097 159.333 C 100.001 159.700,99.790 160.000,99.628 160.000 C 99.279 160.000,99.267 159.894,99.536 159.194 C 99.829 158.429,100.302 158.546,100.097 159.333 M311.450 159.156 C 311.553 159.425,311.511 159.723,311.357 159.819 C 311.202 159.914,310.998 159.694,310.902 159.330 C 310.703 158.568,311.167 158.420,311.450 159.156 M98.704 162.762 C 98.432 163.035,98.333 162.997,98.333 162.622 C 98.333 161.960,98.782 161.511,98.947 162.008 C 99.017 162.219,98.908 162.559,98.704 162.762 M312.667 162.539 C 312.667 162.814,312.517 162.947,312.333 162.833 C 312.150 162.720,312.000 162.402,312.000 162.127 C 312.000 161.852,312.150 161.720,312.333 161.833 C 312.517 161.947,312.667 162.264,312.667 162.539 M97.783 165.511 C 97.501 166.246,97.036 166.099,97.236 165.337 C 97.331 164.972,97.536 164.752,97.690 164.848 C 97.844 164.943,97.886 165.242,97.783 165.511 M313.662 165.417 C 313.657 166.023,313.595 166.071,313.333 165.667 C 312.916 165.020,312.916 164.667,313.333 164.667 C 313.517 164.667,313.664 165.004,313.662 165.417 M97.037 167.429 C 96.765 167.701,96.667 167.664,96.667 167.289 C 96.667 166.626,97.115 166.178,97.281 166.675 C 97.351 166.886,97.241 167.225,97.037 167.429 M240.776 167.681 C 241.962 168.614,245.866 173.887,247.956 177.379 C 257.704 193.666,256.470 213.108,244.685 228.938 C 241.003 233.883,239.361 234.911,236.830 233.853 C 233.747 232.565,233.584 229.847,236.417 226.950 C 250.566 212.483,250.786 191.339,236.960 174.785 C 234.821 172.224,234.710 172.010,235.002 170.995 C 235.977 167.592,238.687 166.038,240.776 167.681 M96.196 170.582 C 95.838 170.940,95.647 170.438,95.899 169.798 C 96.135 169.197,96.153 169.196,96.270 169.776 C 96.337 170.111,96.304 170.474,96.196 170.582 M315.328 170.417 C 315.331 170.554,315.183 170.667,315.000 170.667 C 314.817 170.667,314.669 170.329,314.672 169.917 C 314.677 169.201,315.313 169.686,315.328 170.417 M95.995 171.250 C 95.980 171.981,95.343 172.466,95.338 171.750 C 95.336 171.338,95.483 171.000,95.667 171.000 C 95.850 171.000,95.998 171.112,95.995 171.250 M94.863 175.248 C 94.504 175.607,94.314 175.105,94.566 174.464 C 94.802 173.864,94.820 173.863,94.936 174.443 C 95.004 174.778,94.971 175.140,94.863 175.248 M316.662 175.083 C 316.664 175.221,316.517 175.333,316.333 175.333 C 316.150 175.333,316.002 174.996,316.005 174.583 C 316.010 173.868,316.647 174.353,316.662 175.083 M94.529 176.915 C 94.165 177.279,93.916 176.700,94.177 176.098 C 94.425 175.527,94.443 175.527,94.581 176.109 C 94.661 176.445,94.637 176.807,94.529 176.915 M94.037 178.429 C 93.765 178.701,93.667 178.664,93.667 178.289 C 93.667 177.626,94.115 177.178,94.281 177.675 C 94.351 177.886,94.241 178.225,94.037 178.429 M231.626 179.383 C 243.107 192.728,243.256 207.141,232.057 220.987 C 229.635 223.981,228.676 224.431,226.581 223.555 C 224.018 222.484,223.842 219.967,226.133 217.155 C 234.603 206.757,234.467 194.153,225.773 183.857 C 224.563 182.424,224.424 181.559,225.131 179.866 C 226.273 177.135,229.486 176.895,231.626 179.383 M317.662 179.750 C 317.664 179.887,317.517 180.000,317.333 180.000 C 317.150 180.000,317.002 179.662,317.005 179.250 C 317.010 178.534,317.647 179.019,317.662 179.750 M94.000 179.500 C 94.000 179.775,93.850 180.000,93.667 180.000 C 93.483 180.000,93.333 179.775,93.333 179.500 C 93.333 179.225,93.483 179.000,93.667 179.000 C 93.850 179.000,94.000 179.225,94.000 179.500 M93.529 181.582 C 93.171 181.940,92.981 181.438,93.232 180.798 C 93.468 180.197,93.486 180.196,93.603 180.776 C 93.670 181.111,93.637 181.474,93.529 181.582 M317.995 181.417 C 317.998 181.554,317.850 181.667,317.667 181.667 C 317.483 181.667,317.336 181.329,317.338 180.917 C 317.343 180.201,317.980 180.686,317.995 181.417 M93.196 183.248 C 92.838 183.607,92.647 183.105,92.899 182.464 C 93.135 181.864,93.153 181.863,93.270 182.443 C 93.337 182.778,93.304 183.140,93.196 183.248 M92.995 185.583 C 92.980 186.314,92.343 186.799,92.338 186.083 C 92.336 185.671,92.483 185.333,92.667 185.333 C 92.850 185.333,92.998 185.446,92.995 185.583 M319.000 187.520 C 319.000 187.784,318.850 188.000,318.667 188.000 C 318.483 188.000,318.333 187.691,318.333 187.314 C 318.333 186.936,318.483 186.720,318.667 186.833 C 318.850 186.947,319.000 187.255,319.000 187.520 M92.667 187.500 C 92.667 187.775,92.517 188.000,92.333 188.000 C 92.150 188.000,92.000 187.775,92.000 187.500 C 92.000 187.225,92.150 187.000,92.333 187.000 C 92.517 187.000,92.667 187.225,92.667 187.500 M92.333 190.667 C 92.333 191.033,92.183 191.333,92.000 191.333 C 91.817 191.333,91.667 191.033,91.667 190.667 C 91.667 190.300,91.817 190.000,92.000 190.000 C 92.183 190.000,92.333 190.300,92.333 190.667 M319.333 190.686 C 319.333 191.064,319.183 191.280,319.000 191.167 C 318.817 191.053,318.667 190.745,318.667 190.480 C 318.667 190.216,318.817 190.000,319.000 190.000 C 319.183 190.000,319.333 190.309,319.333 190.686 M92.000 194.000 C 92.000 194.367,91.850 194.667,91.667 194.667 C 91.483 194.667,91.333 194.367,91.333 194.000 C 91.333 193.633,91.483 193.333,91.667 193.333 C 91.850 193.333,92.000 193.633,92.000 194.000 M319.667 193.833 C 319.667 194.108,319.517 194.333,319.333 194.333 C 319.150 194.333,319.000 194.108,319.000 193.833 C 319.000 193.558,319.150 193.333,319.333 193.333 C 319.517 193.333,319.667 193.558,319.667 193.833 M319.529 195.915 C 319.165 196.279,318.916 195.700,319.177 195.098 C 319.425 194.527,319.443 194.527,319.581 195.109 C 319.661 195.445,319.637 195.807,319.529 195.915 M91.765 196.250 C 91.498 197.981,91.333 198.034,91.333 196.389 C 91.333 195.625,91.474 195.000,91.646 195.000 C 91.819 195.000,91.872 195.558,91.765 196.250 M91.529 200.915 C 91.165 201.279,90.916 200.700,91.177 200.098 C 91.425 199.527,91.443 199.527,91.581 200.109 C 91.661 200.445,91.637 200.807,91.529 200.915 M319.733 200.733 C 319.422 201.044,319.333 200.956,319.333 200.333 C 319.333 199.711,319.422 199.622,319.733 199.933 C 320.044 200.244,320.044 200.422,319.733 200.733 M91.667 202.000 C 91.667 202.367,91.517 202.667,91.333 202.667 C 91.150 202.667,91.000 202.367,91.000 202.000 C 91.000 201.633,91.150 201.333,91.333 201.333 C 91.517 201.333,91.667 201.633,91.667 202.000 M320.000 201.814 C 320.000 202.078,319.850 202.387,319.667 202.500 C 319.483 202.613,319.333 202.397,319.333 202.020 C 319.333 201.642,319.483 201.333,319.667 201.333 C 319.850 201.333,320.000 201.549,320.000 201.814 M91.667 203.686 C 91.667 204.064,91.517 204.280,91.333 204.167 C 91.150 204.053,91.000 203.745,91.000 203.480 C 91.000 203.216,91.150 203.000,91.333 203.000 C 91.517 203.000,91.667 203.309,91.667 203.686 M320.000 203.500 C 320.000 203.775,319.850 204.000,319.667 204.000 C 319.483 204.000,319.333 203.775,319.333 203.500 C 319.333 203.225,319.483 203.000,319.667 203.000 C 319.850 203.000,320.000 203.225,320.000 203.500 M319.733 205.400 C 319.422 205.711,319.333 205.622,319.333 205.000 C 319.333 204.378,319.422 204.289,319.733 204.600 C 320.044 204.911,320.044 205.089,319.733 205.400 M91.667 205.353 C 91.667 205.730,91.517 205.947,91.333 205.833 C 91.150 205.720,91.000 205.411,91.000 205.147 C 91.000 204.883,91.150 204.667,91.333 204.667 C 91.517 204.667,91.667 204.976,91.667 205.353 M91.569 208.417 C 91.489 208.829,91.424 208.492,91.424 207.667 C 91.424 206.842,91.489 206.504,91.569 206.917 C 91.648 207.329,91.648 208.004,91.569 208.417 M92.000 210.186 C 92.000 210.451,91.850 210.667,91.667 210.667 C 91.483 210.667,91.333 210.358,91.333 209.980 C 91.333 209.603,91.483 209.387,91.667 209.500 C 91.850 209.613,92.000 209.922,92.000 210.186 M319.667 210.000 C 319.667 210.367,319.517 210.667,319.333 210.667 C 319.150 210.667,319.000 210.367,319.000 210.000 C 319.000 209.633,319.150 209.333,319.333 209.333 C 319.517 209.333,319.667 209.633,319.667 210.000 M92.000 211.733 C 92.000 212.272,91.901 212.368,91.629 212.096 C 91.425 211.892,91.359 211.562,91.482 211.362 C 91.827 210.804,92.000 210.928,92.000 211.733 M319.662 211.250 C 319.647 211.981,319.010 212.466,319.005 211.750 C 319.002 211.338,319.150 211.000,319.333 211.000 C 319.517 211.000,319.664 211.112,319.662 211.250 M92.333 215.020 C 92.333 215.397,92.183 215.613,92.000 215.500 C 91.817 215.387,91.667 215.078,91.667 214.814 C 91.667 214.549,91.817 214.333,92.000 214.333 C 92.183 214.333,92.333 214.642,92.333 215.020 M319.333 214.833 C 319.333 215.108,319.183 215.333,319.000 215.333 C 318.817 215.333,318.667 215.108,318.667 214.833 C 318.667 214.558,318.817 214.333,319.000 214.333 C 319.183 214.333,319.333 214.558,319.333 214.833 M318.863 216.915 C 318.504 217.273,318.314 216.771,318.566 216.131 C 318.802 215.530,318.820 215.529,318.936 216.109 C 319.004 216.445,318.971 216.807,318.863 216.915 M93.000 219.853 C 93.000 220.117,92.850 220.333,92.667 220.333 C 92.483 220.333,92.333 220.024,92.333 219.647 C 92.333 219.270,92.483 219.053,92.667 219.167 C 92.850 219.280,93.000 219.589,93.000 219.853 M318.667 219.480 C 318.667 219.745,318.517 220.053,318.333 220.167 C 318.150 220.280,318.000 220.064,318.000 219.686 C 318.000 219.309,318.150 219.000,318.333 219.000 C 318.517 219.000,318.667 219.216,318.667 219.480 M93.328 221.750 C 93.331 221.887,93.183 222.000,93.000 222.000 C 92.817 222.000,92.669 221.662,92.672 221.250 C 92.677 220.534,93.313 221.019,93.328 221.750 M318.196 221.915 C 317.832 222.279,317.582 221.700,317.844 221.098 C 318.092 220.527,318.110 220.527,318.248 221.109 C 318.327 221.445,318.304 221.807,318.196 221.915 M94.995 229.750 C 94.998 229.887,94.850 230.000,94.667 230.000 C 94.483 230.000,94.336 229.662,94.338 229.250 C 94.343 228.534,94.980 229.019,94.995 229.750 M316.196 231.248 C 315.838 231.607,315.647 231.105,315.899 230.464 C 316.135 229.864,316.153 229.863,316.270 230.443 C 316.337 230.778,316.304 231.140,316.196 231.248 M95.667 232.539 C 95.667 232.814,95.517 232.947,95.333 232.833 C 95.150 232.720,95.000 232.402,95.000 232.127 C 95.000 231.852,95.150 231.720,95.333 231.833 C 95.517 231.947,95.667 232.264,95.667 232.539 M315.704 232.762 C 315.432 233.035,315.333 232.997,315.333 232.622 C 315.333 232.341,315.443 232.002,315.576 231.868 C 315.710 231.734,315.877 231.798,315.947 232.008 C 316.017 232.219,315.908 232.559,315.704 232.762 M95.995 234.083 C 95.991 234.690,95.928 234.738,95.667 234.333 C 95.249 233.687,95.249 233.333,95.667 233.333 C 95.850 233.333,95.998 233.671,95.995 234.083 M315.493 233.917 C 315.358 234.237,315.174 234.838,315.085 235.250 C 314.995 235.662,314.774 236.000,314.592 236.000 C 314.407 236.000,314.369 235.745,314.507 235.417 C 314.642 235.096,314.826 234.496,314.915 234.083 C 315.005 233.671,315.226 233.333,315.408 233.333 C 315.593 233.333,315.631 233.589,315.493 233.917 M97.000 237.206 C 97.000 237.481,96.850 237.613,96.667 237.500 C 96.483 237.387,96.333 237.069,96.333 236.794 C 96.333 236.519,96.483 236.387,96.667 236.500 C 96.850 236.613,97.000 236.931,97.000 237.206 M314.371 237.429 C 314.099 237.701,314.000 237.664,314.000 237.289 C 314.000 237.008,314.109 236.668,314.243 236.535 C 314.377 236.401,314.544 236.464,314.614 236.675 C 314.684 236.886,314.575 237.225,314.371 237.429 M97.662 239.083 C 97.664 239.221,97.517 239.333,97.333 239.333 C 97.150 239.333,97.002 238.996,97.005 238.583 C 97.010 237.868,97.647 238.353,97.662 239.083 M313.371 240.429 C 313.099 240.701,313.000 240.664,313.000 240.289 C 313.000 240.008,313.109 239.668,313.243 239.535 C 313.377 239.401,313.544 239.464,313.614 239.675 C 313.684 239.886,313.575 240.225,313.371 240.429 M312.704 242.096 C 312.432 242.368,312.333 242.331,312.333 241.956 C 312.333 241.674,312.443 241.335,312.576 241.201 C 312.710 241.068,312.877 241.131,312.947 241.342 C 313.017 241.552,312.908 241.892,312.704 242.096 M311.995 244.250 C 311.980 244.981,311.343 245.466,311.338 244.750 C 311.336 244.338,311.483 244.000,311.667 244.000 C 311.850 244.000,311.998 244.112,311.995 244.250 M101.000 247.873 C 101.000 248.148,100.850 248.280,100.667 248.167 C 100.483 248.053,100.333 247.736,100.333 247.461 C 100.333 247.186,100.483 247.053,100.667 247.167 C 100.850 247.280,101.000 247.598,101.000 247.873 M310.371 248.096 C 310.099 248.368,310.000 248.331,310.000 247.956 C 310.000 247.674,310.109 247.335,310.243 247.201 C 310.377 247.068,310.544 247.131,310.614 247.342 C 310.684 247.552,310.575 247.892,310.371 248.096 M102.528 251.179 C 102.836 251.827,103.008 252.436,102.912 252.533 C 102.731 252.713,101.667 250.788,101.667 250.282 C 101.667 249.703,101.985 250.035,102.528 251.179 M308.818 251.485 C 308.530 252.174,308.208 252.653,308.104 252.548 C 307.999 252.443,308.170 251.815,308.485 251.152 C 309.229 249.584,309.499 249.855,308.818 251.485 M307.924 253.396 C 307.851 253.614,307.613 253.851,307.396 253.924 C 307.152 254.005,307.078 253.852,307.202 253.528 C 307.435 252.922,308.124 252.796,307.924 253.396 M104.772 255.511 C 105.465 256.966,105.476 257.200,104.825 256.660 C 104.546 256.428,104.389 256.167,104.476 256.079 C 104.563 255.992,104.417 255.703,104.151 255.437 C 103.621 254.906,103.510 254.333,103.938 254.333 C 104.088 254.333,104.463 254.863,104.772 255.511 M307.328 254.583 C 307.319 255.040,306.706 255.817,306.510 255.621 C 306.248 255.359,306.666 254.333,307.036 254.333 C 307.199 254.333,307.331 254.446,307.328 254.583 M106.798 259.195 C 106.922 259.519,106.848 259.672,106.604 259.590 C 106.106 259.424,105.832 258.667,106.270 258.667 C 106.449 258.667,106.686 258.904,106.798 259.195 M305.000 258.980 C 305.000 259.153,304.859 259.381,304.686 259.488 C 304.514 259.595,304.037 260.353,303.627 261.174 C 303.217 261.995,302.758 262.667,302.608 262.667 C 302.233 262.667,302.261 262.084,302.647 261.845 C 302.820 261.739,303.296 260.980,303.706 260.159 C 304.394 258.781,305.000 258.229,305.000 258.980 M107.800 260.951 C 109.063 263.116,109.362 263.749,109.199 263.912 C 109.098 264.013,108.911 263.811,108.782 263.464 C 108.654 263.117,108.459 262.758,108.350 262.667 C 107.934 262.318,107.000 260.673,107.000 260.290 C 107.000 259.826,107.278 260.056,107.800 260.951 M110.257 264.938 C 110.457 265.537,109.768 265.411,109.535 264.805 C 109.411 264.481,109.485 264.328,109.729 264.410 C 109.947 264.482,110.184 264.720,110.257 264.938 M111.131 266.195 C 111.256 266.519,111.181 266.672,110.938 266.590 C 110.439 266.424,110.165 265.667,110.603 265.667 C 110.782 265.667,111.020 265.904,111.131 266.195 M247.583 267.996 C 249.450 269.134,249.130 270.220,246.250 272.525 C 242.154 275.804,242.108 275.929,245.833 273.656 C 252.152 269.800,255.083 269.373,257.750 271.917 C 259.215 273.315,258.970 273.910,255.232 278.039 C 251.945 281.671,242.474 290.667,241.937 290.667 C 241.796 290.667,240.890 289.855,239.924 288.862 C 237.331 286.199,235.757 285.815,229.004 286.203 C 217.170 286.883,210.359 286.370,205.775 284.454 C 204.293 283.835,204.338 283.712,206.750 281.784 C 218.493 272.398,228.093 267.046,231.483 267.995 C 235.537 269.130,234.374 271.843,228.017 276.080 C 225.523 277.742,223.910 279.034,225.833 277.829 C 226.383 277.484,229.608 275.453,233.000 273.314 C 238.786 269.665,242.000 267.811,242.000 268.121 C 242.000 268.194,242.563 268.054,243.250 267.809 C 245.020 267.177,246.332 267.234,247.583 267.996 M114.769 271.333 C 115.453 272.250,115.892 273.000,115.744 273.000 C 115.597 273.000,114.916 272.250,114.231 271.333 C 113.547 270.417,113.108 269.667,113.256 269.667 C 113.403 269.667,114.084 270.417,114.769 271.333 M170.950 271.674 C 179.195 272.404,183.968 274.060,194.016 279.678 C 207.560 287.250,209.566 287.659,229.833 286.979 C 237.743 286.713,242.315 289.438,239.412 292.688 C 238.214 294.028,227.060 296.709,218.667 297.673 C 212.515 298.380,212.901 298.656,219.833 298.504 C 234.471 298.185,240.736 295.447,248.767 285.860 C 258.438 274.316,265.159 271.123,266.192 277.581 C 266.624 280.286,254.815 293.939,245.833 301.118 C 222.605 319.683,199.691 319.392,171.196 300.169 C 165.507 296.331,164.151 295.871,154.938 294.655 C 148.614 293.820,148.008 293.625,146.484 291.939 C 140.816 285.665,145.356 278.675,158.447 273.519 C 163.728 271.439,165.442 271.186,170.950 271.674 M294.811 273.917 C 294.114 274.787,293.496 275.563,293.438 275.639 C 293.380 275.715,293.232 275.676,293.108 275.552 C 292.983 275.428,293.171 275.046,293.524 274.704 C 293.878 274.362,294.450 273.688,294.797 273.208 C 295.143 272.727,295.574 272.333,295.754 272.333 C 295.933 272.333,295.509 273.046,294.811 273.917 M117.924 275.271 C 118.124 275.871,117.435 275.745,117.202 275.139 C 117.078 274.814,117.152 274.662,117.396 274.743 C 117.613 274.816,117.851 275.053,117.924 275.271 M119.295 276.850 C 119.732 277.311,119.995 277.783,119.878 277.899 C 119.762 278.016,119.629 278.049,119.583 277.972 C 119.537 277.896,119.136 277.421,118.692 276.917 C 117.681 275.769,118.214 275.710,119.295 276.850 M123.219 281.559 C 123.104 281.674,122.670 281.337,122.256 280.811 C 121.842 280.284,121.240 279.628,120.918 279.352 C 120.596 279.077,120.333 278.698,120.334 278.509 C 120.334 278.321,121.030 278.883,121.881 279.758 C 122.732 280.633,123.334 281.444,123.219 281.559 M221.574 280.133 C 219.097 281.635,217.351 282.850,218.500 282.273 C 219.572 281.733,224.667 278.598,224.667 278.478 C 224.667 278.256,224.684 278.247,221.574 280.133 M287.328 282.250 C 287.318 282.664,285.661 284.106,285.444 283.889 C 285.334 283.778,285.601 283.311,286.038 282.850 C 286.832 282.013,287.338 281.777,287.328 282.250 M126.583 284.861 C 126.266 285.179,125.629 284.664,125.866 284.281 C 126.006 284.054,126.193 284.059,126.432 284.299 C 126.628 284.495,126.696 284.748,126.583 284.861 M284.982 284.583 C 284.958 284.905,283.000 286.459,283.000 286.156 C 283.000 285.842,284.441 284.346,284.750 284.339 C 284.887 284.336,284.992 284.446,284.982 284.583 M128.996 286.844 C 129.818 287.663,130.343 288.328,130.162 288.322 C 129.981 288.316,129.160 287.641,128.338 286.822 C 127.515 286.003,126.990 285.338,127.171 285.344 C 127.352 285.350,128.173 286.025,128.996 286.844 M281.336 288.163 C 281.110 288.436,280.775 288.567,280.593 288.455 C 280.392 288.330,280.440 288.138,280.714 287.963 C 281.433 287.508,281.786 287.621,281.336 288.163 M132.619 289.963 C 132.894 290.138,132.941 290.330,132.740 290.455 C 132.558 290.567,132.224 290.436,131.997 290.163 C 131.547 289.621,131.900 289.508,132.619 289.963 M278.802 290.268 C 278.611 290.396,277.528 291.221,276.395 292.103 C 275.261 292.984,274.333 293.572,274.333 293.409 C 274.333 293.246,274.971 292.653,275.750 292.090 C 276.529 291.528,277.528 290.752,277.970 290.365 C 278.412 289.979,278.858 289.747,278.960 289.849 C 279.063 289.952,278.992 290.141,278.802 290.268 M136.590 293.271 C 136.672 293.515,136.519 293.589,136.195 293.465 C 135.904 293.353,135.667 293.116,135.667 292.937 C 135.667 292.498,136.424 292.773,136.590 293.271 M137.900 294.108 C 138.047 294.351,138.451 294.655,138.798 294.783 C 139.145 294.911,139.343 295.102,139.237 295.207 C 139.004 295.440,137.000 294.295,137.000 293.928 C 137.000 293.506,137.610 293.628,137.900 294.108 M274.000 293.964 C 274.000 294.128,273.775 294.348,273.500 294.454 C 272.992 294.649,272.817 294.294,273.222 293.889 C 273.541 293.570,274.000 293.615,274.000 293.964 M143.319 298.116 C 143.338 298.489,141.213 297.138,141.060 296.680 C 140.995 296.485,141.474 296.665,142.123 297.079 C 142.773 297.494,143.311 297.961,143.319 298.116 M146.000 299.730 C 146.000 300.168,145.242 299.894,145.076 299.396 C 144.995 299.152,145.148 299.078,145.472 299.202 C 145.762 299.314,146.000 299.551,146.000 299.730 M265.733 299.733 C 265.519 299.947,265.234 300.012,265.099 299.876 C 264.963 299.741,265.069 299.497,265.333 299.333 C 265.956 298.949,266.237 299.230,265.733 299.733 M263.333 300.924 C 263.333 301.272,261.043 302.488,260.816 302.261 C 260.717 302.162,261.206 301.773,261.902 301.396 C 263.413 300.578,263.333 300.604,263.333 300.924 M150.638 302.250 C 152.151 303.112,151.888 303.438,150.333 302.628 C 149.600 302.245,149.000 301.873,149.000 301.800 C 149.000 301.512,149.660 301.694,150.638 302.250 M153.000 303.730 C 153.000 304.168,152.242 303.894,152.076 303.396 C 151.995 303.152,152.148 303.078,152.472 303.202 C 152.762 303.314,153.000 303.551,153.000 303.730 M258.733 303.733 C 258.519 303.947,258.234 304.012,258.099 303.876 C 257.963 303.741,258.069 303.497,258.333 303.333 C 258.956 302.949,259.237 303.230,258.733 303.733 M154.970 304.535 C 155.559 304.829,155.963 305.149,155.866 305.245 C 155.682 305.429,153.333 304.414,153.333 304.151 C 153.333 303.867,153.897 304.000,154.970 304.535 M257.667 304.151 C 257.667 304.418,255.316 305.427,255.129 305.241 C 255.030 305.142,255.373 304.838,255.891 304.566 C 256.843 304.066,257.667 303.873,257.667 304.151 M169.500 310.667 C 169.613 310.850,169.481 311.000,169.206 311.000 C 168.931 311.000,168.613 310.850,168.500 310.667 C 168.387 310.483,168.519 310.333,168.794 310.333 C 169.069 310.333,169.387 310.483,169.500 310.667 M172.667 311.667 C 172.667 312.084,172.313 312.084,171.667 311.667 C 171.262 311.405,171.310 311.343,171.917 311.338 C 172.329 311.336,172.667 311.483,172.667 311.667 M239.333 311.667 C 238.687 312.084,238.333 312.084,238.333 311.667 C 238.333 311.483,238.671 311.336,239.083 311.338 C 239.690 311.343,239.738 311.405,239.333 311.667 M174.000 312.000 C 174.404 312.261,174.356 312.324,173.750 312.328 C 173.338 312.331,173.000 312.183,173.000 312.000 C 173.000 311.582,173.354 311.582,174.000 312.000 M177.333 313.000 C 177.333 313.418,176.980 313.418,176.333 313.000 C 175.929 312.739,175.977 312.676,176.583 312.672 C 176.996 312.669,177.333 312.817,177.333 313.000 M234.667 313.000 C 234.020 313.418,233.667 313.418,233.667 313.000 C 233.667 312.817,234.004 312.669,234.417 312.672 C 235.023 312.676,235.071 312.739,234.667 313.000 M178.833 313.333 C 178.947 313.517,178.814 313.667,178.539 313.667 C 178.264 313.667,177.947 313.517,177.833 313.333 C 177.720 313.150,177.852 313.000,178.127 313.000 C 178.402 313.000,178.720 313.150,178.833 313.333 M231.833 313.667 C 231.720 313.850,231.402 314.000,231.127 314.000 C 230.852 314.000,230.720 313.850,230.833 313.667 C 230.947 313.483,231.264 313.333,231.539 313.333 C 231.814 313.333,231.947 313.483,231.833 313.667 M181.833 314.000 C 181.947 314.183,181.814 314.333,181.539 314.333 C 181.264 314.333,180.947 314.183,180.833 314.000 C 180.720 313.817,180.852 313.667,181.127 313.667 C 181.402 313.667,181.720 313.817,181.833 314.000 M230.167 314.000 C 230.053 314.183,229.736 314.333,229.461 314.333 C 229.186 314.333,229.053 314.183,229.167 314.000 C 229.280 313.817,229.598 313.667,229.873 313.667 C 230.148 313.667,230.280 313.817,230.167 314.000 M183.500 314.333 C 183.613 314.517,183.397 314.667,183.020 314.667 C 182.642 314.667,182.333 314.517,182.333 314.333 C 182.333 314.150,182.549 314.000,182.814 314.000 C 183.078 314.000,183.387 314.150,183.500 314.333 M228.667 314.333 C 228.667 314.517,228.358 314.667,227.980 314.667 C 227.603 314.667,227.387 314.517,227.500 314.333 C 227.613 314.150,227.922 314.000,228.186 314.000 C 228.451 314.000,228.667 314.150,228.667 314.333 M185.167 314.667 C 185.280 314.850,185.064 315.000,184.686 315.000 C 184.309 315.000,184.000 314.850,184.000 314.667 C 184.000 314.483,184.216 314.333,184.480 314.333 C 184.745 314.333,185.053 314.483,185.167 314.667 M227.000 314.667 C 227.000 314.850,226.775 315.000,226.500 315.000 C 226.225 315.000,226.000 314.850,226.000 314.667 C 226.000 314.483,226.225 314.333,226.500 314.333 C 226.775 314.333,227.000 314.483,227.000 314.667 M225.333 315.000 C 224.687 315.418,224.333 315.418,224.333 315.000 C 224.333 314.817,224.671 314.669,225.083 314.672 C 225.690 314.676,225.738 314.739,225.333 315.000 M191.667 315.667 C 191.667 315.850,191.367 316.000,191.000 316.000 C 190.633 316.000,190.333 315.850,190.333 315.667 C 190.333 315.483,190.633 315.333,191.000 315.333 C 191.367 315.333,191.667 315.483,191.667 315.667 M220.667 315.667 C 220.667 315.850,220.358 316.000,219.980 316.000 C 219.603 316.000,219.387 315.850,219.500 315.667 C 219.613 315.483,219.922 315.333,220.186 315.333 C 220.451 315.333,220.667 315.483,220.667 315.667 M194.833 316.000 C 194.947 316.183,194.730 316.333,194.353 316.333 C 193.976 316.333,193.667 316.183,193.667 316.000 C 193.667 315.817,193.883 315.667,194.147 315.667 C 194.411 315.667,194.720 315.817,194.833 316.000 M217.333 316.000 C 217.333 316.183,217.108 316.333,216.833 316.333 C 216.558 316.333,216.333 316.183,216.333 316.000 C 216.333 315.817,216.558 315.667,216.833 315.667 C 217.108 315.667,217.333 315.817,217.333 316.000 M198.000 316.333 C 198.000 316.517,197.784 316.667,197.520 316.667 C 197.255 316.667,196.947 316.517,196.833 316.333 C 196.720 316.150,196.936 316.000,197.314 316.000 C 197.691 316.000,198.000 316.150,198.000 316.333 M199.500 316.333 C 199.613 316.517,199.388 316.667,199.000 316.667 C 198.612 316.667,198.387 316.517,198.500 316.333 C 198.613 316.150,198.838 316.000,199.000 316.000 C 199.162 316.000,199.387 316.150,199.500 316.333 M212.667 316.333 C 212.667 316.517,212.358 316.667,211.980 316.667 C 211.603 316.667,211.387 316.517,211.500 316.333 C 211.613 316.150,211.922 316.000,212.186 316.000 C 212.451 316.000,212.667 316.150,212.667 316.333 M214.167 316.333 C 214.053 316.517,213.745 316.667,213.480 316.667 C 213.216 316.667,213.000 316.517,213.000 316.333 C 213.000 316.150,213.309 316.000,213.686 316.000 C 214.064 316.000,214.280 316.150,214.167 316.333 M206.167 316.667 C 206.053 316.850,205.745 317.000,205.480 317.000 C 205.216 317.000,205.000 316.850,205.000 316.667 C 205.000 316.483,205.309 316.333,205.686 316.333 C 206.064 316.333,206.280 316.483,206.167 316.667 " stroke="none" fill="#ffffff" fill-rule="evenodd"></path><path id="path2" d="M204.389 88.167 C 204.698 88.476,206.667 88.582,206.667 88.290 C 206.667 88.130,206.117 88.000,205.444 88.000 C 204.772 88.000,204.297 88.075,204.389 88.167 M207.000 88.262 C 207.000 88.406,207.300 88.524,207.667 88.524 C 208.033 88.524,208.333 88.406,208.333 88.262 C 208.333 88.118,208.033 88.000,207.667 88.000 C 207.300 88.000,207.000 88.118,207.000 88.262 M194.410 90.011 C 177.773 92.111,162.209 102.566,147.481 121.534 C 144.441 125.449,144.139 126.347,145.183 128.364 C 147.207 132.278,153.069 129.026,161.186 119.485 C 170.239 108.844,176.019 106.238,191.500 105.815 C 198.327 105.629,198.437 105.966,191.823 106.809 C 184.712 107.716,172.963 110.315,171.694 111.263 C 166.911 114.834,174.136 118.281,184.430 117.340 C 197.531 116.141,203.511 117.445,215.445 124.102 C 232.264 133.484,241.618 135.045,252.873 130.349 C 265.302 125.163,269.330 118.397,263.553 112.409 C 261.929 110.725,261.469 110.585,254.622 109.685 C 246.210 108.580,244.761 108.038,237.614 103.311 C 221.734 92.810,207.339 88.378,194.410 90.011 M165.615 116.461 C 161.949 119.749,154.174 127.637,152.869 129.392 C 151.730 130.925,152.223 132.257,154.327 133.330 C 156.946 134.666,159.559 133.968,165.500 130.344 C 169.197 128.089,169.248 128.151,165.833 130.745 C 161.804 133.805,161.127 135.242,163.194 136.348 C 166.060 137.882,171.024 135.621,184.750 126.530 C 185.254 126.197,185.667 125.994,185.667 126.079 C 185.667 126.165,184.579 126.958,183.250 127.840 C 175.885 132.730,174.803 135.622,180.009 136.502 C 182.894 136.989,197.213 128.525,204.280 122.155 L 206.061 120.550 205.263 120.132 C 201.673 118.252,194.186 117.437,185.599 117.994 C 175.129 118.672,173.169 118.309,170.415 115.181 C 168.767 113.308,169.284 113.170,165.615 116.461 M283.383 119.317 C 283.527 119.746,283.984 119.824,284.025 119.425 C 284.039 119.292,283.870 119.123,283.650 119.050 C 283.430 118.977,283.310 119.097,283.383 119.317 M192.333 122.129 C 192.333 122.199,191.246 122.900,189.917 123.685 C 188.588 124.470,187.125 125.339,186.667 125.617 C 186.208 125.895,185.983 125.958,186.167 125.757 C 186.735 125.134,192.333 121.840,192.333 122.129 M121.801 124.750 C 121.256 125.826,121.257 125.829,121.903 125.167 C 122.261 124.800,122.555 124.313,122.555 124.083 C 122.556 123.436,122.395 123.578,121.801 124.750 M202.928 137.246 C 203.896 137.314,205.396 137.313,206.261 137.245 C 207.126 137.176,206.333 137.121,204.500 137.122 C 202.667 137.123,201.959 137.179,202.928 137.246 M299.090 137.364 C 299.415 137.553,299.600 137.838,299.502 137.997 C 299.403 138.157,299.462 138.373,299.632 138.479 C 299.802 138.584,299.913 138.482,299.878 138.252 C 299.775 137.571,299.323 136.999,298.897 137.010 C 298.679 137.016,298.766 137.175,299.090 137.364 M203.750 144.909 C 204.438 144.981,205.563 144.981,206.250 144.909 C 206.938 144.838,206.375 144.779,205.000 144.779 C 203.625 144.779,203.063 144.838,203.750 144.909 M160.821 154.417 L 159.167 156.167 160.917 154.513 C 161.879 153.603,162.667 152.815,162.667 152.763 C 162.667 152.514,162.358 152.791,160.821 154.417 M254.417 198.833 C 254.421 199.567,254.489 199.827,254.569 199.413 C 254.649 198.998,254.646 198.398,254.562 198.079 C 254.479 197.761,254.414 198.100,254.417 198.833 M142.100 200.000 C 142.100 201.008,142.162 201.421,142.239 200.917 C 142.315 200.412,142.315 199.588,142.239 199.083 C 142.162 198.579,142.100 198.992,142.100 200.000 M232.437 200.833 C 232.438 201.933,232.501 202.343,232.575 201.744 C 232.649 201.145,232.648 200.245,232.572 199.744 C 232.495 199.243,232.435 199.733,232.437 200.833 M254.411 202.000 C 254.411 202.642,254.479 202.904,254.563 202.583 C 254.647 202.262,254.647 201.737,254.563 201.417 C 254.479 201.096,254.411 201.358,254.411 202.000 M91.000 202.000 C 91.000 202.367,91.118 202.667,91.262 202.667 C 91.406 202.667,91.524 202.367,91.524 202.000 C 91.524 201.633,91.406 201.333,91.262 201.333 C 91.118 201.333,91.000 201.633,91.000 202.000 M142.095 203.833 C 142.098 204.750,142.163 205.085,142.239 204.579 C 142.316 204.072,142.314 203.322,142.235 202.912 C 142.156 202.502,142.093 202.917,142.095 203.833 M319.000 210.000 C 319.000 210.367,319.118 210.667,319.262 210.667 C 319.406 210.667,319.524 210.367,319.524 210.000 C 319.524 209.633,319.406 209.333,319.262 209.333 C 319.118 209.333,319.000 209.633,319.000 210.000 M238.083 234.230 C 238.404 234.314,238.929 234.314,239.250 234.230 C 239.571 234.146,239.308 234.077,238.667 234.077 C 238.025 234.077,237.762 234.146,238.083 234.230 M251.146 243.417 L 250.167 244.500 251.250 243.521 C 251.846 242.983,252.333 242.495,252.333 242.438 C 252.333 242.180,252.058 242.407,251.146 243.417 M159.333 246.167 C 160.329 247.175,161.219 248.000,161.311 248.000 C 161.402 248.000,160.662 247.175,159.667 246.167 C 158.671 245.158,157.781 244.333,157.689 244.333 C 157.598 244.333,158.338 245.158,159.333 246.167 M101.857 250.629 C 101.756 250.791,101.896 251.108,102.167 251.333 C 102.438 251.558,102.563 251.898,102.445 252.089 C 102.316 252.297,102.393 252.336,102.637 252.185 C 102.946 251.994,102.918 251.795,102.521 251.357 C 102.234 251.039,102.099 250.679,102.221 250.556 C 102.344 250.434,102.353 250.333,102.242 250.333 C 102.130 250.333,101.957 250.466,101.857 250.629 M208.589 256.242 C 209.188 256.316,210.088 256.314,210.589 256.238 C 211.090 256.162,210.600 256.101,209.500 256.103 C 208.400 256.105,207.990 256.167,208.589 256.242 M243.250 267.809 C 242.563 268.054,242.000 268.194,242.000 268.121 C 242.000 267.811,238.786 269.665,233.000 273.314 C 229.608 275.453,226.383 277.484,225.833 277.829 C 223.910 279.034,225.523 277.742,228.017 276.080 C 234.374 271.843,235.537 269.130,231.483 267.995 C 228.093 267.046,218.493 272.398,206.750 281.784 C 204.338 283.712,204.293 283.835,205.775 284.454 C 210.359 286.370,217.170 286.883,229.004 286.203 C 235.757 285.815,237.331 286.199,239.924 288.862 C 240.890 289.855,241.796 290.667,241.937 290.667 C 242.474 290.667,251.945 281.671,255.232 278.039 C 258.970 273.910,259.215 273.315,257.750 271.917 C 255.083 269.373,252.152 269.800,245.833 273.656 C 242.108 275.929,242.154 275.804,246.250 272.525 C 250.397 269.206,248.351 265.988,243.250 267.809 M163.114 271.996 C 150.113 275.404,141.896 282.981,144.592 289.075 C 146.325 292.993,147.614 293.688,154.938 294.655 C 164.151 295.871,165.507 296.331,171.196 300.169 C 199.691 319.392,222.605 319.683,245.833 301.118 C 254.815 293.939,266.624 280.286,266.192 277.581 C 265.159 271.123,258.438 274.316,248.767 285.860 C 240.736 295.447,234.471 298.185,219.833 298.504 C 212.901 298.656,212.515 298.380,218.667 297.673 C 227.060 296.709,238.214 294.028,239.412 292.688 C 242.315 289.438,237.743 286.713,229.833 286.979 C 209.566 287.659,207.560 287.250,194.016 279.678 C 183.968 274.060,179.195 272.404,170.950 271.674 C 166.105 271.245,165.953 271.251,163.114 271.996 M224.667 278.478 C 224.667 278.598,219.572 281.733,218.500 282.273 C 217.351 282.850,219.097 281.635,221.574 280.133 C 224.684 278.247,224.667 278.256,224.667 278.478 M285.514 283.310 C 285.287 283.679,285.812 284.077,286.120 283.769 C 286.437 283.452,286.378 283.000,286.020 283.000 C 285.847 283.000,285.620 283.140,285.514 283.310 M153.813 304.395 C 153.674 304.636,153.684 304.721,153.836 304.583 C 153.988 304.445,154.372 304.567,154.690 304.854 C 155.155 305.275,155.316 305.292,155.520 304.938 C 155.660 304.697,155.649 304.613,155.497 304.751 C 155.345 304.889,154.961 304.766,154.643 304.479 C 154.178 304.058,154.017 304.042,153.813 304.395 " stroke="none" fill="#ffffff" fill-rule="evenodd"></path><path id="path3" d="M234.417 152.230 C 234.737 152.314,235.262 152.314,235.583 152.230 C 235.904 152.146,235.642 152.077,235.000 152.077 C 234.358 152.077,234.096 152.146,234.417 152.230 M236.146 227.417 L 235.167 228.500 236.250 227.521 C 236.846 226.983,237.333 226.495,237.333 226.438 C 237.333 226.180,237.058 226.407,236.146 227.417 M241.315 232.583 L 240.167 233.833 241.417 232.685 C 242.580 231.615,242.820 231.333,242.565 231.333 C 242.510 231.333,241.947 231.896,241.315 232.583 " stroke="none" fill="#8c848d" fill-rule="evenodd"></path><path id="path4" d="" stroke="none" fill="#8c8c8c" fill-rule="evenodd"></path></g></svg>